<svg width="14" height="18" viewBox="0 0 14 18" fill="none" xmlns="http://www.w3.org/2000/svg">
<path d="M6.75 0C10.4726 0 13.5 3.02737 13.5 6.75C13.5 11.4289 7.407 17.5759 7.14825 17.8358C7.038 17.9449 6.894 18 6.75 18C6.606 18 6.462 17.9449 6.35175 17.8358C6.093 17.5759 0 11.4289 0 6.75C0 3.02737 3.02737 0 6.75 0ZM6.75 16.6241C8.09325 15.1864 12.375 10.3241 12.375 6.75C12.375 3.64838 9.85162 1.125 6.75 1.125C3.64838 1.125 1.125 3.64838 1.125 6.75C1.125 10.3208 5.40675 15.1864 6.75 16.6241Z" fill="#232323"/>
<path d="M6.75 3.375C8.61075 3.375 10.125 4.88925 10.125 6.75C10.125 8.61075 8.61075 10.125 6.75 10.125C4.88925 10.125 3.375 8.61075 3.375 6.75C3.375 4.88925 4.88925 3.375 6.75 3.375ZM6.75 9C7.99088 9 9 7.99088 9 6.75C9 5.50912 7.99088 4.5 6.75 4.5C5.50912 4.5 4.5 5.50912 4.5 6.75C4.5 7.99088 5.50912 9 6.75 9Z" fill="#232323"/>
</svg>
