<svg width="252" height="213" viewBox="0 0 252 213" fill="none" xmlns="http://www.w3.org/2000/svg">
<path d="M5.93506 208H4.59033V199.351C4.59033 198.631 4.61247 197.951 4.65674 197.309C4.54053 197.425 4.41048 197.547 4.2666 197.674C4.12272 197.801 3.46419 198.341 2.29102 199.292L1.56055 198.346L4.77295 195.864H5.93506V208ZM18.6021 201.916C18.6021 204.013 18.27 205.579 17.606 206.614C16.9474 207.649 15.9375 208.166 14.5762 208.166C13.2702 208.166 12.2769 207.638 11.5962 206.581C10.9155 205.518 10.5752 203.963 10.5752 201.916C10.5752 199.802 10.9045 198.233 11.563 197.209C12.2215 196.185 13.2259 195.673 14.5762 195.673C15.8932 195.673 16.8921 196.207 17.5728 197.275C18.259 198.343 18.6021 199.89 18.6021 201.916ZM11.9697 201.916C11.9697 203.681 12.1772 204.967 12.5923 205.775C13.0073 206.578 13.6686 206.979 14.5762 206.979C15.4948 206.979 16.1589 206.572 16.5684 205.759C16.9834 204.94 17.1909 203.659 17.1909 201.916C17.1909 200.172 16.9834 198.897 16.5684 198.089C16.1589 197.275 15.4948 196.869 14.5762 196.869C13.6686 196.869 13.0073 197.27 12.5923 198.072C12.1772 198.869 11.9697 200.15 11.9697 201.916ZM28.3306 201.916C28.3306 204.013 27.9985 205.579 27.3345 206.614C26.6759 207.649 25.666 208.166 24.3047 208.166C22.9987 208.166 22.0054 207.638 21.3247 206.581C20.644 205.518 20.3037 203.963 20.3037 201.916C20.3037 199.802 20.633 198.233 21.2915 197.209C21.95 196.185 22.9544 195.673 24.3047 195.673C25.6217 195.673 26.6206 196.207 27.3013 197.275C27.9875 198.343 28.3306 199.89 28.3306 201.916ZM21.6982 201.916C21.6982 203.681 21.9058 204.967 22.3208 205.775C22.7358 206.578 23.3971 206.979 24.3047 206.979C25.2233 206.979 25.8874 206.572 26.2969 205.759C26.7119 204.94 26.9194 203.659 26.9194 201.916C26.9194 200.172 26.7119 198.897 26.2969 198.089C25.8874 197.275 25.2233 196.869 24.3047 196.869C23.3971 196.869 22.7358 197.27 22.3208 198.072C21.9058 198.869 21.6982 200.15 21.6982 201.916ZM31.1943 199.483C31.1943 200.424 31.2967 201.13 31.5015 201.6C31.7062 202.07 32.0382 202.306 32.4976 202.306C33.4051 202.306 33.8589 201.365 33.8589 199.483C33.8589 197.613 33.4051 196.678 32.4976 196.678C32.0382 196.678 31.7062 196.91 31.5015 197.375C31.2967 197.84 31.1943 198.543 31.1943 199.483ZM34.9961 199.483C34.9961 200.745 34.783 201.7 34.3569 202.347C33.9364 202.989 33.3166 203.31 32.4976 203.31C31.7228 203.31 31.1196 202.981 30.688 202.322C30.2619 201.664 30.0488 200.717 30.0488 199.483C30.0488 198.227 30.2536 197.281 30.6631 196.645C31.0781 196.008 31.6896 195.69 32.4976 195.69C33.3 195.69 33.917 196.019 34.3486 196.678C34.7803 197.336 34.9961 198.271 34.9961 199.483ZM38.499 204.348C38.499 205.294 38.6014 206.002 38.8062 206.473C39.0109 206.938 39.3457 207.17 39.8105 207.17C40.2754 207.17 40.6185 206.94 40.8398 206.481C41.0612 206.016 41.1719 205.305 41.1719 204.348C41.1719 203.401 41.0612 202.701 40.8398 202.248C40.6185 201.788 40.2754 201.559 39.8105 201.559C39.3457 201.559 39.0109 201.788 38.8062 202.248C38.6014 202.701 38.499 203.401 38.499 204.348ZM42.3091 204.348C42.3091 205.604 42.096 206.556 41.6699 207.203C41.2493 207.845 40.6296 208.166 39.8105 208.166C39.0247 208.166 38.4188 207.837 37.9927 207.178C37.5721 206.52 37.3618 205.576 37.3618 204.348C37.3618 203.091 37.5666 202.145 37.9761 201.509C38.3911 200.872 39.0026 200.554 39.8105 200.554C40.5964 200.554 41.2078 200.881 41.645 201.534C42.0877 202.181 42.3091 203.119 42.3091 204.348ZM40.1675 195.864L33.4355 208H32.2153L38.9473 195.864H40.1675ZM56.1133 204.771C56.1133 205.839 55.7259 206.672 54.9512 207.27C54.1764 207.867 53.125 208.166 51.7969 208.166C50.3581 208.166 49.2513 207.981 48.4766 207.61V206.249C48.9746 206.459 49.5169 206.625 50.1035 206.747C50.6901 206.868 51.2712 206.929 51.8467 206.929C52.7874 206.929 53.4958 206.752 53.9717 206.398C54.4476 206.038 54.6855 205.54 54.6855 204.904C54.6855 204.483 54.5998 204.14 54.4282 203.875C54.2622 203.603 53.98 203.354 53.5815 203.127C53.1886 202.901 52.5882 202.643 51.7803 202.355C50.6514 201.951 49.8434 201.473 49.3564 200.919C48.875 200.366 48.6343 199.644 48.6343 198.753C48.6343 197.818 48.9857 197.073 49.6885 196.52C50.3913 195.967 51.321 195.69 52.4775 195.69C53.6839 195.69 54.7935 195.911 55.8062 196.354L55.3662 197.583C54.3646 197.162 53.3906 196.952 52.4443 196.952C51.6973 196.952 51.1134 197.112 50.6929 197.433C50.2723 197.754 50.062 198.2 50.062 198.77C50.062 199.19 50.1395 199.536 50.2944 199.807C50.4494 200.073 50.7095 200.319 51.0747 200.546C51.4455 200.767 52.0099 201.014 52.7681 201.285C54.0409 201.738 54.9152 202.225 55.3911 202.746C55.8726 203.266 56.1133 203.941 56.1133 204.771ZM62.231 208.166C60.8862 208.166 59.8237 207.757 59.0435 206.938C58.2687 206.118 57.8813 204.981 57.8813 203.526C57.8813 202.059 58.241 200.895 58.9604 200.031C59.6854 199.168 60.6566 198.736 61.874 198.736C63.014 198.736 63.916 199.113 64.5801 199.865C65.2441 200.612 65.5762 201.6 65.5762 202.829V203.7H59.3091C59.3368 204.768 59.6051 205.579 60.1143 206.132C60.6289 206.686 61.3511 206.962 62.2808 206.962C63.2603 206.962 64.2287 206.758 65.186 206.348V207.577C64.6991 207.787 64.237 207.936 63.7998 208.025C63.3682 208.119 62.8452 208.166 62.231 208.166ZM61.8574 199.89C61.127 199.89 60.5431 200.128 60.106 200.604C59.6743 201.08 59.4198 201.738 59.3423 202.58H64.0986C64.0986 201.711 63.9049 201.047 63.5176 200.587C63.1302 200.123 62.5768 199.89 61.8574 199.89ZM71.5693 208.166C70.2523 208.166 69.2313 207.762 68.5063 206.954C67.7869 206.141 67.4272 204.992 67.4272 203.509C67.4272 201.987 67.7925 200.812 68.5229 199.981C69.259 199.151 70.3049 198.736 71.6606 198.736C72.0978 198.736 72.535 198.783 72.9722 198.877C73.4093 198.972 73.7524 199.082 74.0015 199.209L73.5781 200.38C73.2738 200.258 72.9417 200.159 72.582 200.081C72.2223 199.998 71.9041 199.957 71.6274 199.957C69.7791 199.957 68.855 201.135 68.855 203.493C68.855 204.611 69.0791 205.468 69.5273 206.066C69.9811 206.664 70.6507 206.962 71.5361 206.962C72.2943 206.962 73.0718 206.799 73.8687 206.473V207.693C73.2599 208.008 72.4935 208.166 71.5693 208.166ZM77.3301 198.902V204.804C77.3301 205.546 77.4989 206.099 77.8364 206.464C78.174 206.83 78.7025 207.012 79.4219 207.012C80.3737 207.012 81.0682 206.752 81.5054 206.232C81.9481 205.712 82.1694 204.862 82.1694 203.684V198.902H83.5474V208H82.4102L82.2109 206.78H82.1362C81.854 207.228 81.4611 207.571 80.9575 207.809C80.4595 208.047 79.8895 208.166 79.2476 208.166C78.1408 208.166 77.3107 207.903 76.7573 207.377C76.2095 206.852 75.9355 206.011 75.9355 204.854V198.902H77.3301ZM90.6279 198.736C91.0319 198.736 91.3944 198.77 91.7153 198.836L91.5244 200.114C91.1481 200.031 90.8161 199.99 90.5283 199.99C89.7923 199.99 89.1615 200.289 88.6357 200.886C88.1156 201.484 87.8555 202.228 87.8555 203.119V208H86.4775V198.902H87.6147L87.7725 200.587H87.8389C88.1764 199.995 88.5832 199.539 89.0591 199.218C89.535 198.897 90.0579 198.736 90.6279 198.736ZM97.2603 208.166C95.9155 208.166 94.853 207.757 94.0728 206.938C93.298 206.118 92.9106 204.981 92.9106 203.526C92.9106 202.059 93.2703 200.895 93.9897 200.031C94.7147 199.168 95.6859 198.736 96.9033 198.736C98.0433 198.736 98.9453 199.113 99.6094 199.865C100.273 200.612 100.605 201.6 100.605 202.829V203.7H94.3384C94.366 204.768 94.6344 205.579 95.1436 206.132C95.6582 206.686 96.3804 206.962 97.3101 206.962C98.2896 206.962 99.258 206.758 100.215 206.348V207.577C99.7284 207.787 99.2663 207.936 98.8291 208.025C98.3975 208.119 97.8745 208.166 97.2603 208.166ZM96.8867 199.89C96.1562 199.89 95.5724 200.128 95.1353 200.604C94.7036 201.08 94.4491 201.738 94.3716 202.58H99.1279C99.1279 201.711 98.9342 201.047 98.5469 200.587C98.1595 200.123 97.6061 199.89 96.8867 199.89ZM111.612 208.166C111.02 208.166 110.478 208.058 109.985 207.842C109.498 207.621 109.089 207.283 108.757 206.83H108.657C108.724 207.361 108.757 207.864 108.757 208.34V212.084H107.379V198.902H108.5L108.69 200.147H108.757C109.111 199.649 109.523 199.29 109.994 199.068C110.464 198.847 111.004 198.736 111.612 198.736C112.819 198.736 113.748 199.149 114.401 199.973C115.06 200.798 115.389 201.954 115.389 203.443C115.389 204.937 115.054 206.099 114.385 206.929C113.721 207.754 112.797 208.166 111.612 208.166ZM111.413 199.907C110.483 199.907 109.811 200.164 109.396 200.679C108.981 201.193 108.768 202.012 108.757 203.136V203.443C108.757 204.721 108.97 205.637 109.396 206.19C109.822 206.738 110.506 207.012 111.446 207.012C112.232 207.012 112.846 206.694 113.289 206.058C113.737 205.421 113.961 204.544 113.961 203.426C113.961 202.292 113.737 201.423 113.289 200.82C112.846 200.211 112.221 199.907 111.413 199.907ZM123.399 208L123.125 206.705H123.059C122.605 207.275 122.152 207.662 121.698 207.867C121.25 208.066 120.688 208.166 120.013 208.166C119.111 208.166 118.402 207.934 117.888 207.469C117.379 207.004 117.124 206.343 117.124 205.485C117.124 203.648 118.593 202.685 121.532 202.596L123.076 202.546V201.982C123.076 201.268 122.921 200.742 122.611 200.405C122.306 200.062 121.817 199.89 121.142 199.89C120.383 199.89 119.526 200.123 118.568 200.587L118.145 199.533C118.593 199.29 119.083 199.099 119.614 198.96C120.151 198.822 120.688 198.753 121.225 198.753C122.309 198.753 123.112 198.994 123.632 199.475C124.158 199.957 124.42 200.729 124.42 201.791V208H123.399ZM120.287 207.029C121.144 207.029 121.817 206.794 122.304 206.323C122.796 205.853 123.042 205.194 123.042 204.348V203.526L121.665 203.584C120.569 203.623 119.778 203.794 119.291 204.099C118.809 204.397 118.568 204.865 118.568 205.501C118.568 206 118.718 206.379 119.017 206.639C119.321 206.899 119.744 207.029 120.287 207.029ZM125.823 198.902H127.301L129.293 204.09C129.73 205.275 130.001 206.13 130.106 206.655H130.173C130.245 206.373 130.394 205.892 130.621 205.211C130.854 204.525 131.606 202.422 132.879 198.902H134.356L130.447 209.262C130.059 210.285 129.606 211.01 129.085 211.437C128.571 211.868 127.937 212.084 127.185 212.084C126.764 212.084 126.349 212.037 125.939 211.943V210.839C126.244 210.905 126.584 210.938 126.96 210.938C127.907 210.938 128.582 210.407 128.986 209.345L129.492 208.05L125.823 198.902ZM147.43 208V202.082C147.43 201.357 147.275 200.814 146.965 200.455C146.655 200.089 146.174 199.907 145.521 199.907C144.663 199.907 144.03 200.153 143.62 200.646C143.211 201.138 143.006 201.896 143.006 202.92V208H141.628V202.082C141.628 201.357 141.473 200.814 141.163 200.455C140.853 200.089 140.369 199.907 139.71 199.907C138.847 199.907 138.214 200.167 137.81 200.687C137.411 201.202 137.212 202.048 137.212 203.227V208H135.834V198.902H136.955L137.179 200.147H137.245C137.505 199.705 137.87 199.359 138.341 199.11C138.817 198.861 139.348 198.736 139.935 198.736C141.357 198.736 142.286 199.251 142.724 200.28H142.79C143.061 199.804 143.454 199.428 143.969 199.151C144.483 198.875 145.07 198.736 145.729 198.736C146.758 198.736 147.527 199.002 148.036 199.533C148.551 200.059 148.808 200.903 148.808 202.065V208H147.43ZM155.499 208.166C154.154 208.166 153.091 207.757 152.311 206.938C151.536 206.118 151.149 204.981 151.149 203.526C151.149 202.059 151.509 200.895 152.228 200.031C152.953 199.168 153.924 198.736 155.142 198.736C156.282 198.736 157.184 199.113 157.848 199.865C158.512 200.612 158.844 201.6 158.844 202.829V203.7H152.577C152.604 204.768 152.873 205.579 153.382 206.132C153.896 206.686 154.619 206.962 155.548 206.962C156.528 206.962 157.496 206.758 158.454 206.348V207.577C157.967 207.787 157.505 207.936 157.067 208.025C156.636 208.119 156.113 208.166 155.499 208.166ZM155.125 199.89C154.395 199.89 153.811 200.128 153.374 200.604C152.942 201.08 152.687 201.738 152.61 202.58H157.366C157.366 201.711 157.173 201.047 156.785 200.587C156.398 200.123 155.844 199.89 155.125 199.89ZM167.427 208V202.115C167.427 201.373 167.258 200.82 166.92 200.455C166.583 200.089 166.054 199.907 165.335 199.907C164.383 199.907 163.686 200.164 163.243 200.679C162.8 201.193 162.579 202.043 162.579 203.227V208H161.201V198.902H162.322L162.546 200.147H162.612C162.895 199.699 163.29 199.353 163.799 199.11C164.308 198.861 164.876 198.736 165.501 198.736C166.597 198.736 167.421 199.002 167.975 199.533C168.528 200.059 168.805 200.903 168.805 202.065V208H167.427ZM174.582 207.029C174.826 207.029 175.061 207.012 175.288 206.979C175.514 206.94 175.694 206.902 175.827 206.863V207.917C175.678 207.989 175.456 208.047 175.163 208.091C174.875 208.141 174.615 208.166 174.383 208.166C172.623 208.166 171.743 207.239 171.743 205.385V199.973H170.44V199.309L171.743 198.736L172.324 196.794H173.121V198.902H175.761V199.973H173.121V205.327C173.121 205.875 173.251 206.296 173.511 206.589C173.771 206.882 174.128 207.029 174.582 207.029ZM193.666 208V202.082C193.666 201.357 193.511 200.814 193.201 200.455C192.891 200.089 192.409 199.907 191.756 199.907C190.899 199.907 190.265 200.153 189.855 200.646C189.446 201.138 189.241 201.896 189.241 202.92V208H187.863V202.082C187.863 201.357 187.708 200.814 187.398 200.455C187.089 200.089 186.604 199.907 185.946 199.907C185.083 199.907 184.449 200.167 184.045 200.687C183.646 201.202 183.447 202.048 183.447 203.227V208H182.069V198.902H183.19L183.414 200.147H183.48C183.741 199.705 184.106 199.359 184.576 199.11C185.052 198.861 185.583 198.736 186.17 198.736C187.592 198.736 188.522 199.251 188.959 200.28H189.025C189.297 199.804 189.689 199.428 190.204 199.151C190.719 198.875 191.305 198.736 191.964 198.736C192.993 198.736 193.762 199.002 194.271 199.533C194.786 200.059 195.043 200.903 195.043 202.065V208H193.666ZM201.734 208.166C200.389 208.166 199.327 207.757 198.546 206.938C197.772 206.118 197.384 204.981 197.384 203.526C197.384 202.059 197.744 200.895 198.463 200.031C199.188 199.168 200.16 198.736 201.377 198.736C202.517 198.736 203.419 199.113 204.083 199.865C204.747 200.612 205.079 201.6 205.079 202.829V203.7H198.812C198.84 204.768 199.108 205.579 199.617 206.132C200.132 206.686 200.854 206.962 201.784 206.962C202.763 206.962 203.732 206.758 204.689 206.348V207.577C204.202 207.787 203.74 207.936 203.303 208.025C202.871 208.119 202.348 208.166 201.734 208.166ZM201.36 199.89C200.63 199.89 200.046 200.128 199.609 200.604C199.177 201.08 198.923 201.738 198.845 202.58H203.602C203.602 201.711 203.408 201.047 203.021 200.587C202.633 200.123 202.08 199.89 201.36 199.89ZM210.375 207.029C210.618 207.029 210.854 207.012 211.081 206.979C211.307 206.94 211.487 206.902 211.62 206.863V207.917C211.471 207.989 211.249 208.047 210.956 208.091C210.668 208.141 210.408 208.166 210.176 208.166C208.416 208.166 207.536 207.239 207.536 205.385V199.973H206.233V199.309L207.536 198.736L208.117 196.794H208.914V198.902H211.554V199.973H208.914V205.327C208.914 205.875 209.044 206.296 209.304 206.589C209.564 206.882 209.921 207.029 210.375 207.029ZM219.672 208V202.115C219.672 201.373 219.503 200.82 219.166 200.455C218.828 200.089 218.299 199.907 217.58 199.907C216.623 199.907 215.923 200.167 215.48 200.687C215.043 201.207 214.824 202.059 214.824 203.244V208H213.446V195.084H214.824V198.994C214.824 199.464 214.802 199.854 214.758 200.164H214.841C215.112 199.727 215.497 199.384 215.995 199.135C216.498 198.88 217.071 198.753 217.713 198.753C218.825 198.753 219.658 199.019 220.211 199.55C220.77 200.076 221.05 200.914 221.05 202.065V208H219.672ZM231.741 203.443C231.741 204.926 231.368 206.085 230.621 206.921C229.874 207.751 228.841 208.166 227.524 208.166C226.711 208.166 225.989 207.975 225.358 207.593C224.727 207.211 224.24 206.664 223.897 205.95C223.554 205.236 223.382 204.4 223.382 203.443C223.382 201.96 223.753 200.806 224.495 199.981C225.236 199.151 226.265 198.736 227.583 198.736C228.855 198.736 229.865 199.16 230.612 200.006C231.365 200.853 231.741 201.999 231.741 203.443ZM224.81 203.443C224.81 204.605 225.042 205.49 225.507 206.099C225.972 206.708 226.656 207.012 227.558 207.012C228.46 207.012 229.143 206.711 229.608 206.107C230.078 205.499 230.313 204.611 230.313 203.443C230.313 202.286 230.078 201.409 229.608 200.812C229.143 200.208 228.454 199.907 227.541 199.907C226.639 199.907 225.958 200.203 225.499 200.795C225.04 201.387 224.81 202.27 224.81 203.443ZM240.357 206.78H240.283C239.646 207.704 238.694 208.166 237.427 208.166C236.237 208.166 235.311 207.759 234.646 206.946C233.988 206.132 233.659 204.976 233.659 203.476C233.659 201.976 233.991 200.812 234.655 199.981C235.319 199.151 236.243 198.736 237.427 198.736C238.661 198.736 239.608 199.185 240.266 200.081H240.374L240.316 199.425L240.283 198.786V195.084H241.661V208H240.54L240.357 206.78ZM237.602 207.012C238.542 207.012 239.223 206.758 239.644 206.249C240.07 205.734 240.283 204.907 240.283 203.767V203.476C240.283 202.187 240.067 201.268 239.635 200.72C239.209 200.167 238.526 199.89 237.585 199.89C236.777 199.89 236.157 200.206 235.726 200.836C235.299 201.462 235.086 202.347 235.086 203.493C235.086 204.655 235.299 205.532 235.726 206.124C236.152 206.716 236.777 207.012 237.602 207.012ZM250.459 205.518C250.459 206.365 250.144 207.018 249.513 207.477C248.882 207.936 247.997 208.166 246.857 208.166C245.651 208.166 244.71 207.975 244.035 207.593V206.315C244.472 206.536 244.939 206.711 245.438 206.838C245.941 206.965 246.425 207.029 246.89 207.029C247.61 207.029 248.163 206.915 248.55 206.688C248.938 206.456 249.131 206.105 249.131 205.634C249.131 205.28 248.976 204.979 248.667 204.729C248.362 204.475 247.764 204.176 246.874 203.833C246.027 203.518 245.424 203.244 245.064 203.011C244.71 202.773 244.444 202.505 244.267 202.206C244.096 201.907 244.01 201.55 244.01 201.135C244.01 200.394 244.311 199.81 244.915 199.384C245.518 198.952 246.345 198.736 247.396 198.736C248.376 198.736 249.333 198.936 250.269 199.334L249.779 200.455C248.866 200.078 248.038 199.89 247.297 199.89C246.644 199.89 246.151 199.993 245.819 200.197C245.487 200.402 245.321 200.684 245.321 201.044C245.321 201.287 245.382 201.495 245.504 201.667C245.631 201.838 245.833 202.001 246.11 202.156C246.387 202.311 246.918 202.535 247.704 202.829C248.783 203.222 249.51 203.617 249.887 204.016C250.269 204.414 250.459 204.915 250.459 205.518Z" fill="#303030"/>
<path d="M33.31 169.33C33.31 171.13 32.66 172.57 31.36 173.65C30.08 174.71 28.39 175.24 26.29 175.24C24.01 175.24 22.12 174.81 20.62 173.95V170.08C22.34 171.32 24.22 171.94 26.26 171.94C27.18 171.94 27.92 171.72 28.48 171.28C29.04 170.82 29.32 170.21 29.32 169.45C29.32 169.09 29.25 168.77 29.11 168.49C28.97 168.21 28.68 167.93 28.24 167.65C27.82 167.37 27.49 167.17 27.25 167.05C27.03 166.93 26.56 166.71 25.84 166.39C25.64 166.29 25.49 166.22 25.39 166.18C24.65 165.84 24.05 165.54 23.59 165.28C23.13 165 22.63 164.63 22.09 164.17C21.55 163.71 21.14 163.16 20.86 162.52C20.6 161.88 20.47 161.15 20.47 160.33C20.47 158.61 21.1 157.23 22.36 156.19C23.64 155.15 25.33 154.63 27.43 154.63C29.33 154.63 30.97 154.96 32.35 155.62V159.28C30.85 158.38 29.25 157.93 27.55 157.93C26.61 157.93 25.87 158.14 25.33 158.56C24.81 158.98 24.55 159.52 24.55 160.18C24.55 160.84 24.83 161.39 25.39 161.83C25.97 162.25 26.83 162.72 27.97 163.24C28.77 163.6 29.42 163.92 29.92 164.2C30.42 164.46 30.96 164.83 31.54 165.31C32.14 165.79 32.58 166.37 32.86 167.05C33.16 167.71 33.31 168.47 33.31 169.33ZM48.0873 174.16C47.0273 174.82 45.4973 175.15 43.4973 175.15C41.0773 175.15 39.1673 174.43 37.7673 172.99C36.3673 171.55 35.6673 169.69 35.6673 167.41C35.6673 164.99 36.3273 163.09 37.6473 161.71C38.9673 160.33 40.6173 159.64 42.5973 159.64C44.5773 159.64 46.1473 160.24 47.3073 161.44C48.4673 162.64 49.0473 164.39 49.0473 166.69C49.0473 167.25 48.9773 167.97 48.8373 168.85H39.2973C39.5573 169.95 40.0973 170.79 40.9173 171.37C41.7573 171.95 42.7973 172.24 44.0373 172.24C45.6373 172.24 46.9873 171.84 48.0873 171.04V174.16ZM42.6873 162.46C41.8273 162.46 41.0773 162.78 40.4373 163.42C39.8173 164.04 39.4173 164.95 39.2373 166.15H45.6273V165.7C45.5873 164.72 45.3173 163.94 44.8173 163.36C44.3373 162.76 43.6273 162.46 42.6873 162.46ZM63.3663 174.34C62.3063 174.96 60.9863 175.27 59.4063 175.27C57.0663 175.27 55.1663 174.53 53.7063 173.05C52.2663 171.57 51.5463 169.7 51.5463 167.44C51.5663 165.22 52.2863 163.35 53.7063 161.83C55.1463 160.31 57.1063 159.55 59.5863 159.55C61.0663 159.55 62.3263 159.83 63.3663 160.39V163.57C62.3663 162.93 61.2263 162.61 59.9463 162.61C58.5463 162.61 57.4163 163.05 56.5563 163.93C55.6963 164.81 55.2563 165.98 55.2363 167.44C55.2763 168.88 55.7063 170.04 56.5263 170.92C57.3663 171.8 58.4963 172.24 59.9163 172.24C61.1563 172.24 62.3063 171.9 63.3663 171.22V174.34ZM79.498 175H75.868V172.51C75.068 174.27 73.508 175.15 71.188 175.15C69.648 175.15 68.448 174.71 67.588 173.83C66.728 172.95 66.298 171.7 66.298 170.08V159.79H69.898V169.24C69.898 170.2 70.128 170.93 70.588 171.43C71.068 171.93 71.718 172.18 72.538 172.18C73.578 172.18 74.388 171.83 74.968 171.13C75.568 170.43 75.868 169.37 75.868 167.95V159.79H79.498V175ZM87.0109 175H83.3809L83.4109 159.79H87.0109V162.49C87.7109 160.61 88.9909 159.67 90.8509 159.67C91.2709 159.67 91.6109 159.7 91.8709 159.76V163.24C91.4109 163.04 90.9009 162.94 90.3409 162.94C89.3609 162.94 88.5609 163.34 87.9409 164.14C87.3209 164.94 87.0109 165.94 87.0109 167.14V175ZM105.597 174.16C104.537 174.82 103.007 175.15 101.007 175.15C98.5871 175.15 96.6771 174.43 95.2771 172.99C93.8771 171.55 93.1771 169.69 93.1771 167.41C93.1771 164.99 93.8371 163.09 95.1571 161.71C96.4771 160.33 98.1271 159.64 100.107 159.64C102.087 159.64 103.657 160.24 104.817 161.44C105.977 162.64 106.557 164.39 106.557 166.69C106.557 167.25 106.487 167.97 106.347 168.85H96.8071C97.0671 169.95 97.6071 170.79 98.4271 171.37C99.2671 171.95 100.307 172.24 101.547 172.24C103.147 172.24 104.497 171.84 105.597 171.04V174.16ZM100.197 162.46C99.3371 162.46 98.5871 162.78 97.9471 163.42C97.3271 164.04 96.9271 164.95 96.7471 166.15H103.137V165.7C103.097 164.72 102.827 163.94 102.327 163.36C101.847 162.76 101.137 162.46 100.197 162.46ZM123.672 168.13H121.032V175H117.252V154.78H123.582C125.862 154.78 127.682 155.4 129.042 156.64C130.422 157.88 131.112 159.47 131.112 161.41C131.112 163.47 130.402 165.11 128.982 166.33C127.582 167.53 125.812 168.13 123.672 168.13ZM123.252 157.87H121.032V165.07H123.162C124.542 165.07 125.572 164.74 126.252 164.08C126.932 163.42 127.272 162.53 127.272 161.41C127.272 160.31 126.932 159.45 126.252 158.83C125.572 158.19 124.572 157.87 123.252 157.87ZM138.992 172.45C139.792 172.45 140.412 172.22 140.852 171.76C141.312 171.28 141.542 170.66 141.542 169.9V168.46H139.682C138.742 168.46 138.022 168.66 137.522 169.06C137.022 169.44 136.772 169.93 136.772 170.53C136.772 171.81 137.512 172.45 138.992 172.45ZM141.692 173.17C140.992 174.47 139.672 175.12 137.732 175.12C136.292 175.12 135.142 174.7 134.282 173.86C133.442 173.02 133.022 171.96 133.022 170.68C133.022 169.24 133.562 168.11 134.642 167.29C135.722 166.47 137.282 166.06 139.322 166.06H141.542V165.13C141.542 164.29 141.322 163.65 140.882 163.21C140.442 162.77 139.692 162.55 138.632 162.55C137.012 162.55 135.522 163 134.162 163.9V160.57C135.302 159.87 136.942 159.52 139.082 159.52C143.202 159.52 145.262 161.44 145.262 165.28V175H141.692V173.17ZM156.777 174.58C155.257 178.64 152.937 180.67 149.817 180.67C149.237 180.67 148.737 180.62 148.317 180.52V177.55C148.637 177.63 148.977 177.67 149.337 177.67C151.157 177.67 152.447 176.68 153.207 174.7L147.207 159.79H151.197L152.967 164.65C153.507 166.09 153.937 167.3 154.257 168.28C154.597 169.26 154.807 169.88 154.887 170.14L154.977 170.56C155.177 169.86 155.817 167.89 156.897 164.65L158.487 159.79H162.267L156.777 174.58ZM186.045 175H182.415V165.67C182.415 163.63 181.635 162.61 180.075 162.61C179.295 162.61 178.595 162.95 177.975 163.63C177.375 164.31 177.075 165.38 177.075 166.84V175H173.445V165.67C173.445 163.63 172.665 162.61 171.105 162.61C170.325 162.61 169.625 162.95 169.005 163.63C168.385 164.31 168.075 165.38 168.075 166.84V175H164.475V159.79H168.075V162.19C168.935 160.47 170.365 159.61 172.365 159.61C174.585 159.61 176.025 160.57 176.685 162.49C177.085 161.57 177.685 160.86 178.485 160.36C179.285 159.86 180.195 159.61 181.215 159.61C182.755 159.61 183.945 160.08 184.785 161.02C185.625 161.94 186.045 163.26 186.045 164.98V175ZM201.369 174.16C200.309 174.82 198.779 175.15 196.779 175.15C194.359 175.15 192.449 174.43 191.049 172.99C189.649 171.55 188.949 169.69 188.949 167.41C188.949 164.99 189.609 163.09 190.929 161.71C192.249 160.33 193.899 159.64 195.879 159.64C197.859 159.64 199.429 160.24 200.589 161.44C201.749 162.64 202.329 164.39 202.329 166.69C202.329 167.25 202.259 167.97 202.119 168.85H192.579C192.839 169.95 193.379 170.79 194.199 171.37C195.039 171.95 196.079 172.24 197.319 172.24C198.919 172.24 200.269 171.84 201.369 171.04V174.16ZM195.969 162.46C195.109 162.46 194.359 162.78 193.719 163.42C193.099 164.04 192.699 164.95 192.519 166.15H198.909V165.7C198.869 164.72 198.599 163.94 198.099 163.36C197.619 162.76 196.909 162.46 195.969 162.46ZM218.837 175H215.238V165.64C215.238 164.64 214.998 163.89 214.518 163.39C214.038 162.87 213.388 162.61 212.568 162.61C211.628 162.61 210.838 162.98 210.198 163.72C209.558 164.44 209.238 165.48 209.238 166.84V175H205.638V159.79H209.238V162.4C210.098 160.54 211.658 159.61 213.918 159.61C215.438 159.61 216.638 160.07 217.518 160.99C218.398 161.91 218.837 163.21 218.837 164.89V175ZM231 174.64C230.3 174.98 229.4 175.15 228.3 175.15C225.02 175.15 223.38 173.49 223.38 170.17V162.49H221.1V159.79H223.38V156.13H226.98V159.79H230.76V162.49H226.98V170.23C226.98 170.87 227.15 171.36 227.49 171.7C227.83 172.02 228.3 172.18 228.9 172.18C229.66 172.18 230.36 171.97 231 171.55V174.64Z" fill="#232323"/>
<g filter="url(#filter0_d_1_66)">
<rect x="76" y="19" width="100" height="100" rx="5" fill="white"/>
</g>
<mask id="mask0_1_66" style="mask-type:alpha" maskUnits="userSpaceOnUse" x="87" y="39" width="78" height="60">
<rect x="87" y="39" width="78" height="60" rx="10" fill="white"/>
</mask>
<g mask="url(#mask0_1_66)">
<path d="M130.93 89.3125L124.041 84.7198L124.893 83.4427L130.93 87.4681L136.968 83.4427L137.82 84.7198L130.93 89.3125Z" fill="#9E3040"/>
<path d="M146.169 57.2376C143.283 56.8186 140.463 56.0268 137.78 54.8824C135.351 53.8519 133.051 52.5411 130.927 50.9762C126.436 54.2757 121.206 56.4255 115.693 57.2376L115.47 55.7188C120.921 54.9172 126.079 52.7464 130.462 49.4098L130.93 49.0531L131.391 49.4098C133.539 51.0515 135.885 52.4167 138.375 53.4727C140.936 54.5654 143.628 55.3212 146.384 55.7214L146.169 57.2376Z" fill="#9E3040"/>
<path d="M136.302 73.6612H133.233V72.1263H136.302C136.726 72.1263 137.07 71.7826 137.07 71.3588C137.07 70.935 136.726 70.5914 136.302 70.5914H134.768C133.496 70.5914 132.465 69.5605 132.465 68.289C132.465 67.0172 133.496 65.9867 134.768 65.9867H137.837V67.5216H134.768C134.344 67.5216 134 67.8652 134 68.289C134 68.7129 134.344 69.0565 134.768 69.0565H136.302C137.574 69.0565 138.605 70.087 138.605 71.3588C138.605 72.6303 137.574 73.6612 136.302 73.6612Z" fill="#9E3040"/>
<path d="M134.768 64.4518H136.302V66.7541H134.768V64.4518Z" fill="#9E3040"/>
<path d="M134.768 72.8938H136.302V75.1961H134.768V72.8938Z" fill="#9E3040"/>
<path d="M148.959 52.9109C145.728 52.6827 142.559 51.9171 139.58 50.6453C136.599 49.3821 133.85 47.6306 131.445 45.4628L130.93 45L130.416 45.4605C125.564 49.8141 119.404 52.4343 112.903 52.9094L111.743 52.9862V58.3123H108.565C108.179 56.8152 106.74 55.8394 105.206 56.0343C103.673 56.2291 102.523 57.5336 102.523 59.0797C102.523 60.6255 103.673 61.9303 105.206 62.1248C106.74 62.3196 108.179 61.3438 108.565 59.8472H121.403L123.706 62.1495H129.395V65.9867H122.806L120.504 63.6844H101V65.2193H113.729L120.636 72.1263H129.395V75.9635H116.709L113.577 72.2027C114.424 70.8676 114.143 69.1105 112.922 68.1054C111.702 67.1004 109.923 67.1615 108.775 68.2486C107.627 69.3353 107.468 71.1074 108.404 72.3811C109.341 73.6552 111.079 74.0322 112.46 73.2606L114.711 75.9635H101V77.4984H123.3L120.558 81.3356H110.1C109.714 79.8386 108.275 78.8628 106.741 79.0577C105.208 79.2525 104.058 80.5569 104.058 82.1031C104.058 83.6488 105.208 84.9536 106.741 85.1481C108.275 85.343 109.714 84.3672 110.1 82.8705H117.408C118.839 84.5613 120.499 86.0449 122.34 87.277L130.93 93.0006L139.521 87.2755C146.147 82.8668 150.124 75.4336 150.117 67.4755V52.9907L148.959 52.9109ZM105.605 60.6146C104.757 60.6146 104.07 59.9273 104.07 59.0797C104.07 58.2317 104.757 57.5448 105.605 57.5448C106.452 57.5448 107.14 58.2317 107.14 59.0797C107.14 59.9273 106.452 60.6146 105.605 60.6146ZM110.977 72.1263C110.129 72.1263 109.442 71.439 109.442 70.5914C109.442 69.7434 110.129 69.0565 110.977 69.0565C111.824 69.0565 112.512 69.7434 112.512 70.5914C112.512 71.439 111.824 72.1263 110.977 72.1263ZM107.14 83.638C106.292 83.638 105.605 82.9507 105.605 82.1031C105.605 81.2551 106.292 80.5682 107.14 80.5682C107.987 80.5682 108.674 81.2551 108.674 82.1031C108.674 82.9507 107.987 83.638 107.14 83.638ZM121.271 70.5914L115.899 65.2193H119.868L122.171 67.5216H129.395V70.5914H121.271ZM148.582 67.4755C148.59 74.9206 144.868 81.8752 138.67 85.9999L130.93 91.1588L123.192 86.0014C121.839 85.0953 120.587 84.0457 119.46 82.8705H121.349L125.186 77.4984H129.395V84.4054H130.93V80.3685C135.755 82.4812 141.399 81.0497 144.633 76.8921C147.868 72.7345 147.868 66.9123 144.633 62.7547C141.399 58.5974 135.755 57.1656 130.93 59.2783V55.2425H129.395V60.6146H124.341L122.039 58.3123H113.279V54.4218C119.792 53.8882 125.97 51.3093 130.93 47.0546C133.337 49.1295 136.053 50.8173 138.978 52.0573C142.031 53.3602 145.274 54.1588 148.582 54.4218V67.4755ZM135.535 78.2659C139.138 78.2644 142.344 75.9763 143.515 72.5688C144.687 69.1614 143.567 65.386 140.726 63.1691C137.886 60.9519 133.951 60.7821 130.93 62.7464V60.9983C135.128 58.7852 140.304 59.8355 143.307 63.5094C146.31 67.1832 146.31 72.4643 143.307 76.1381C140.304 79.812 135.128 80.8624 130.93 78.6496V76.9011C132.299 77.7956 133.9 78.2696 135.535 78.2659ZM130.93 74.9611V64.6864C133.697 62.2005 137.934 62.3511 140.517 65.0274C143.1 67.7034 143.1 71.9442 140.517 74.6201C137.934 77.2964 133.697 77.4471 130.93 74.9611Z" fill="#9E3040"/>
</g>
<defs>
<filter id="filter0_d_1_66" x="57" y="0" width="138" height="138" filterUnits="userSpaceOnUse" color-interpolation-filters="sRGB">
<feFlood flood-opacity="0" result="BackgroundImageFix"/>
<feColorMatrix in="SourceAlpha" type="matrix" values="0 0 0 0 0 0 0 0 0 0 0 0 0 0 0 0 0 0 127 0" result="hardAlpha"/>
<feOffset/>
<feGaussianBlur stdDeviation="9.5"/>
<feColorMatrix type="matrix" values="0 0 0 0 0 0 0 0 0 0 0 0 0 0 0 0 0 0 0.19 0"/>
<feBlend mode="normal" in2="BackgroundImageFix" result="effect1_dropShadow_1_66"/>
<feBlend mode="normal" in="SourceGraphic" in2="effect1_dropShadow_1_66" result="shape"/>
</filter>
</defs>
</svg>
