<svg width="192" height="213" viewBox="0 0 192 213" fill="none" xmlns="http://www.w3.org/2000/svg">
<path d="M3.07959 208H1.66846V195.864H8.43359V197.118H3.07959V201.559H8.10986V202.812H3.07959V208ZM18.0957 203.443C18.0957 204.926 17.7222 206.085 16.9751 206.921C16.228 207.751 15.196 208.166 13.8789 208.166C13.0654 208.166 12.3433 207.975 11.7124 207.593C11.0815 207.211 10.5946 206.664 10.2515 205.95C9.90837 205.236 9.73682 204.4 9.73682 203.443C9.73682 201.96 10.1076 200.806 10.8491 199.981C11.5907 199.151 12.62 198.736 13.937 198.736C15.2098 198.736 16.2197 199.16 16.9668 200.006C17.7194 200.853 18.0957 201.999 18.0957 203.443ZM11.1646 203.443C11.1646 204.605 11.397 205.49 11.8618 206.099C12.3267 206.708 13.0101 207.012 13.9121 207.012C14.8141 207.012 15.4976 206.711 15.9624 206.107C16.4328 205.499 16.668 204.611 16.668 203.443C16.668 202.286 16.4328 201.409 15.9624 200.812C15.4976 200.208 14.8086 199.907 13.8955 199.907C12.9935 199.907 12.3128 200.203 11.8535 200.795C11.3942 201.387 11.1646 202.27 11.1646 203.443ZM24.6699 198.736C25.0739 198.736 25.4364 198.77 25.7573 198.836L25.5664 200.114C25.1901 200.031 24.8581 199.99 24.5703 199.99C23.8343 199.99 23.2035 200.289 22.6777 200.886C22.1576 201.484 21.8975 202.228 21.8975 203.119V208H20.5195V198.902H21.6567L21.8145 200.587H21.8809C22.2184 199.995 22.6252 199.539 23.1011 199.218C23.577 198.897 24.0999 198.736 24.6699 198.736ZM37.4697 208L37.1958 206.705H37.1294C36.6756 207.275 36.2218 207.662 35.7681 207.867C35.3198 208.066 34.7581 208.166 34.083 208.166C33.181 208.166 32.4727 207.934 31.958 207.469C31.4489 207.004 31.1943 206.343 31.1943 205.485C31.1943 203.648 32.6636 202.685 35.6021 202.596L37.146 202.546V201.982C37.146 201.268 36.991 200.742 36.6812 200.405C36.3768 200.062 35.887 199.89 35.2119 199.89C34.4538 199.89 33.596 200.123 32.6387 200.587L32.2153 199.533C32.6636 199.29 33.1533 199.099 33.6846 198.96C34.2214 198.822 34.7581 198.753 35.2949 198.753C36.3796 198.753 37.182 198.994 37.7021 199.475C38.2279 199.957 38.4907 200.729 38.4907 201.791V208H37.4697ZM34.3569 207.029C35.2147 207.029 35.887 206.794 36.374 206.323C36.8665 205.853 37.1128 205.194 37.1128 204.348V203.526L35.7349 203.584C34.6392 203.623 33.8478 203.794 33.3608 204.099C32.8794 204.397 32.6387 204.865 32.6387 205.501C32.6387 206 32.7881 206.379 33.0869 206.639C33.3913 206.899 33.8146 207.029 34.3569 207.029ZM42.7158 208H41.3379V195.084H42.7158V208ZM47.0156 208H45.6377V195.084H47.0156V208ZM62.2061 203.443C62.2061 204.926 61.8325 206.085 61.0854 206.921C60.3384 207.751 59.3063 208.166 57.9893 208.166C57.1758 208.166 56.4536 207.975 55.8228 207.593C55.1919 207.211 54.7049 206.664 54.3618 205.95C54.0187 205.236 53.8472 204.4 53.8472 203.443C53.8472 201.96 54.2179 200.806 54.9595 199.981C55.701 199.151 56.7303 198.736 58.0474 198.736C59.3201 198.736 60.3301 199.16 61.0771 200.006C61.8298 200.853 62.2061 201.999 62.2061 203.443ZM55.2749 203.443C55.2749 204.605 55.5073 205.49 55.9722 206.099C56.437 206.708 57.1204 207.012 58.0225 207.012C58.9245 207.012 59.6079 206.711 60.0728 206.107C60.5431 205.499 60.7783 204.611 60.7783 203.443C60.7783 202.286 60.5431 201.409 60.0728 200.812C59.6079 200.208 58.9189 199.907 58.0059 199.907C57.1038 199.907 56.4232 200.203 55.9639 200.795C55.5046 201.387 55.2749 202.27 55.2749 203.443ZM68.7803 198.736C69.1842 198.736 69.5467 198.77 69.8677 198.836L69.6768 200.114C69.3005 200.031 68.9684 199.99 68.6807 199.99C67.9447 199.99 67.3138 200.289 66.7881 200.886C66.2679 201.484 66.0078 202.228 66.0078 203.119V208H64.6299V198.902H65.7671L65.9248 200.587H65.9912C66.3288 199.995 66.7355 199.539 67.2114 199.218C67.6873 198.897 68.2103 198.736 68.7803 198.736ZM77.7617 206.78H77.687C77.0506 207.704 76.0988 208.166 74.8315 208.166C73.6418 208.166 72.7148 207.759 72.0508 206.946C71.3923 206.132 71.063 204.976 71.063 203.476C71.063 201.976 71.395 200.812 72.0591 199.981C72.7231 199.151 73.6473 198.736 74.8315 198.736C76.0656 198.736 77.0119 199.185 77.6704 200.081H77.7783L77.7202 199.425L77.687 198.786V195.084H79.0649V208H77.9443L77.7617 206.78ZM75.0059 207.012C75.9466 207.012 76.6273 206.758 77.0479 206.249C77.474 205.734 77.687 204.907 77.687 203.767V203.476C77.687 202.187 77.4712 201.268 77.0396 200.72C76.6134 200.167 75.93 199.89 74.9893 199.89C74.1813 199.89 73.5615 200.206 73.1299 200.836C72.7038 201.462 72.4907 202.347 72.4907 203.493C72.4907 204.655 72.7038 205.532 73.1299 206.124C73.556 206.716 74.1813 207.012 75.0059 207.012ZM85.8384 208.166C84.4937 208.166 83.4312 207.757 82.6509 206.938C81.8761 206.118 81.4888 204.981 81.4888 203.526C81.4888 202.059 81.8485 200.895 82.5679 200.031C83.2928 199.168 84.264 198.736 85.4814 198.736C86.6214 198.736 87.5234 199.113 88.1875 199.865C88.8516 200.612 89.1836 201.6 89.1836 202.829V203.7H82.9165C82.9442 204.768 83.2126 205.579 83.7217 206.132C84.2363 206.686 84.9585 206.962 85.8882 206.962C86.8677 206.962 87.8361 206.758 88.7935 206.348V207.577C88.3065 207.787 87.8444 207.936 87.4072 208.025C86.9756 208.119 86.4526 208.166 85.8384 208.166ZM85.4648 199.89C84.7344 199.89 84.1506 200.128 83.7134 200.604C83.2817 201.08 83.0272 201.738 82.9497 202.58H87.7061C87.7061 201.711 87.5124 201.047 87.125 200.587C86.7376 200.123 86.1842 199.89 85.4648 199.89ZM95.6914 198.736C96.0954 198.736 96.4578 198.77 96.7788 198.836L96.5879 200.114C96.2116 200.031 95.8796 199.99 95.5918 199.99C94.8558 199.99 94.2249 200.289 93.6992 200.886C93.179 201.484 92.9189 202.228 92.9189 203.119V208H91.541V198.902H92.6782L92.8359 200.587H92.9023C93.2399 199.995 93.6466 199.539 94.1226 199.218C94.5985 198.897 95.1214 198.736 95.6914 198.736ZM104.349 205.518C104.349 206.365 104.034 207.018 103.403 207.477C102.772 207.936 101.887 208.166 100.747 208.166C99.5402 208.166 98.5994 207.975 97.9243 207.593V206.315C98.3615 206.536 98.8291 206.711 99.3271 206.838C99.8307 206.965 100.315 207.029 100.78 207.029C101.499 207.029 102.053 206.915 102.44 206.688C102.827 206.456 103.021 206.105 103.021 205.634C103.021 205.28 102.866 204.979 102.556 204.729C102.252 204.475 101.654 204.176 100.763 203.833C99.9165 203.518 99.3133 203.244 98.9536 203.011C98.5994 202.773 98.3338 202.505 98.1567 202.206C97.9852 201.907 97.8994 201.55 97.8994 201.135C97.8994 200.394 98.201 199.81 98.8042 199.384C99.4074 198.952 100.235 198.736 101.286 198.736C102.266 198.736 103.223 198.936 104.158 199.334L103.668 200.455C102.755 200.078 101.928 199.89 101.187 199.89C100.534 199.89 100.041 199.993 99.709 200.197C99.377 200.402 99.2109 200.684 99.2109 201.044C99.2109 201.287 99.2718 201.495 99.3936 201.667C99.5208 201.838 99.7228 202.001 99.9995 202.156C100.276 202.311 100.807 202.535 101.593 202.829C102.672 203.222 103.4 203.617 103.776 204.016C104.158 204.414 104.349 204.915 104.349 205.518ZM116.609 208L116.335 206.705H116.269C115.815 207.275 115.361 207.662 114.908 207.867C114.459 208.066 113.898 208.166 113.223 208.166C112.321 208.166 111.612 207.934 111.098 207.469C110.589 207.004 110.334 206.343 110.334 205.485C110.334 203.648 111.803 202.685 114.742 202.596L116.286 202.546V201.982C116.286 201.268 116.131 200.742 115.821 200.405C115.516 200.062 115.027 199.89 114.352 199.89C113.593 199.89 112.736 200.123 111.778 200.587L111.355 199.533C111.803 199.29 112.293 199.099 112.824 198.96C113.361 198.822 113.898 198.753 114.435 198.753C115.519 198.753 116.322 198.994 116.842 199.475C117.368 199.957 117.63 200.729 117.63 201.791V208H116.609ZM113.497 207.029C114.354 207.029 115.027 206.794 115.514 206.323C116.006 205.853 116.252 205.194 116.252 204.348V203.526L114.875 203.584C113.779 203.623 112.987 203.794 112.5 204.099C112.019 204.397 111.778 204.865 111.778 205.501C111.778 206 111.928 206.379 112.227 206.639C112.531 206.899 112.954 207.029 113.497 207.029ZM124.711 198.753C125.906 198.753 126.833 199.162 127.492 199.981C128.156 200.795 128.488 201.949 128.488 203.443C128.488 204.937 128.153 206.099 127.483 206.929C126.819 207.754 125.895 208.166 124.711 208.166C124.119 208.166 123.576 208.058 123.084 207.842C122.597 207.621 122.188 207.283 121.855 206.83H121.756L121.465 208H120.478V195.084H121.855V198.222C121.855 198.924 121.833 199.555 121.789 200.114H121.855C122.497 199.207 123.449 198.753 124.711 198.753ZM124.512 199.907C123.571 199.907 122.893 200.178 122.478 200.72C122.063 201.257 121.855 202.165 121.855 203.443C121.855 204.721 122.069 205.637 122.495 206.19C122.921 206.738 123.604 207.012 124.545 207.012C125.392 207.012 126.022 206.705 126.438 206.091C126.853 205.471 127.06 204.583 127.06 203.426C127.06 202.242 126.853 201.359 126.438 200.778C126.022 200.197 125.381 199.907 124.512 199.907ZM138.756 203.443C138.756 204.926 138.382 206.085 137.635 206.921C136.888 207.751 135.856 208.166 134.539 208.166C133.726 208.166 133.003 207.975 132.373 207.593C131.742 207.211 131.255 206.664 130.912 205.95C130.569 205.236 130.397 204.4 130.397 203.443C130.397 201.96 130.768 200.806 131.509 199.981C132.251 199.151 133.28 198.736 134.597 198.736C135.87 198.736 136.88 199.16 137.627 200.006C138.38 200.853 138.756 201.999 138.756 203.443ZM131.825 203.443C131.825 204.605 132.057 205.49 132.522 206.099C132.987 206.708 133.67 207.012 134.572 207.012C135.474 207.012 136.158 206.711 136.623 206.107C137.093 205.499 137.328 204.611 137.328 203.443C137.328 202.286 137.093 201.409 136.623 200.812C136.158 200.208 135.469 199.907 134.556 199.907C133.654 199.907 132.973 200.203 132.514 200.795C132.054 201.387 131.825 202.27 131.825 203.443ZM143.172 208L139.719 198.902H141.196L143.155 204.298C143.598 205.56 143.858 206.379 143.936 206.755H144.002C144.063 206.462 144.254 205.856 144.575 204.937C144.901 204.013 145.629 202.001 146.758 198.902H148.235L144.782 208H143.172ZM153.54 208.166C152.195 208.166 151.132 207.757 150.352 206.938C149.577 206.118 149.19 204.981 149.19 203.526C149.19 202.059 149.55 200.895 150.269 200.031C150.994 199.168 151.965 198.736 153.183 198.736C154.323 198.736 155.225 199.113 155.889 199.865C156.553 200.612 156.885 201.6 156.885 202.829V203.7H150.618C150.645 204.768 150.914 205.579 151.423 206.132C151.938 206.686 152.66 206.962 153.589 206.962C154.569 206.962 155.537 206.758 156.495 206.348V207.577C156.008 207.787 155.546 207.936 155.108 208.025C154.677 208.119 154.154 208.166 153.54 208.166ZM153.166 199.89C152.436 199.89 151.852 200.128 151.415 200.604C150.983 201.08 150.728 201.738 150.651 202.58H155.407C155.407 201.711 155.214 201.047 154.826 200.587C154.439 200.123 153.885 199.89 153.166 199.89ZM170.797 204.273C170.797 205.026 170.515 205.648 169.95 206.141C169.386 206.628 168.597 206.935 167.584 207.062V208.988H166.514V207.137C165.894 207.137 165.293 207.09 164.712 206.996C164.131 206.896 163.655 206.76 163.285 206.589V205.294C163.744 205.499 164.272 205.667 164.87 205.8C165.473 205.928 166.021 205.991 166.514 205.991V202.339C165.379 201.979 164.582 201.561 164.123 201.085C163.669 200.61 163.442 199.995 163.442 199.243C163.442 198.518 163.722 197.923 164.281 197.458C164.845 196.993 165.59 196.711 166.514 196.611V195.101H167.584V196.595C168.603 196.622 169.585 196.827 170.531 197.209L170.1 198.296C169.275 197.97 168.437 197.776 167.584 197.715V201.318C168.453 201.595 169.104 201.866 169.535 202.131C169.967 202.391 170.285 202.693 170.49 203.036C170.694 203.374 170.797 203.786 170.797 204.273ZM169.386 204.381C169.386 203.982 169.261 203.661 169.012 203.418C168.769 203.169 168.293 202.923 167.584 202.679V205.908C168.785 205.742 169.386 205.233 169.386 204.381ZM164.845 199.226C164.845 199.647 164.97 199.984 165.219 200.239C165.468 200.493 165.899 200.734 166.514 200.961V197.749C165.966 197.837 165.551 198.011 165.269 198.271C164.986 198.526 164.845 198.844 164.845 199.226ZM180.276 198.72C180.276 199.494 180.058 200.128 179.621 200.621C179.189 201.113 178.575 201.442 177.778 201.608V201.675C178.752 201.797 179.474 202.106 179.944 202.604C180.415 203.103 180.65 203.756 180.65 204.563C180.65 205.72 180.249 206.611 179.446 207.236C178.644 207.856 177.504 208.166 176.026 208.166C175.384 208.166 174.795 208.116 174.258 208.017C173.727 207.923 173.21 207.754 172.706 207.51V206.199C173.232 206.459 173.791 206.658 174.383 206.796C174.98 206.929 175.545 206.996 176.076 206.996C178.174 206.996 179.222 206.174 179.222 204.53C179.222 203.058 178.066 202.322 175.752 202.322H174.557V201.135H175.769C176.715 201.135 177.465 200.928 178.019 200.513C178.572 200.092 178.849 199.511 178.849 198.77C178.849 198.177 178.644 197.713 178.234 197.375C177.83 197.037 177.28 196.869 176.583 196.869C176.051 196.869 175.55 196.941 175.08 197.084C174.61 197.228 174.073 197.494 173.47 197.881L172.772 196.952C173.271 196.559 173.843 196.252 174.491 196.03C175.144 195.803 175.83 195.69 176.549 195.69C177.728 195.69 178.644 195.961 179.297 196.503C179.95 197.04 180.276 197.779 180.276 198.72ZM186.278 200.587C187.556 200.587 188.561 200.906 189.291 201.542C190.027 202.173 190.395 203.039 190.395 204.14C190.395 205.396 189.994 206.381 189.191 207.095C188.395 207.809 187.293 208.166 185.888 208.166C184.521 208.166 183.478 207.947 182.758 207.51V206.182C183.146 206.431 183.627 206.628 184.203 206.771C184.778 206.91 185.345 206.979 185.904 206.979C186.878 206.979 187.634 206.749 188.17 206.29C188.713 205.831 188.984 205.167 188.984 204.298C188.984 202.604 187.946 201.758 185.871 201.758C185.345 201.758 184.643 201.838 183.763 201.999L183.049 201.542L183.505 195.864H189.54V197.134H184.684L184.377 200.778C185.013 200.651 185.647 200.587 186.278 200.587Z" fill="#303030"/>
<path d="M21.93 166.93H14.91V175H11.1V154.78H22.95V157.87H14.91V163.84H21.93V166.93ZM29.5207 175H25.8907L25.9207 159.79H29.5207V162.49C30.2207 160.61 31.5007 159.67 33.3607 159.67C33.7807 159.67 34.1207 159.7 34.3807 159.76V163.24C33.9207 163.04 33.4107 162.94 32.8507 162.94C31.8707 162.94 31.0707 163.34 30.4507 164.14C29.8307 164.94 29.5207 165.94 29.5207 167.14V175ZM48.1069 174.16C47.0469 174.82 45.5169 175.15 43.5169 175.15C41.0969 175.15 39.1869 174.43 37.7869 172.99C36.3869 171.55 35.6869 169.69 35.6869 167.41C35.6869 164.99 36.3469 163.09 37.6669 161.71C38.9869 160.33 40.6369 159.64 42.6169 159.64C44.5969 159.64 46.1669 160.24 47.3269 161.44C48.4869 162.64 49.0669 164.39 49.0669 166.69C49.0669 167.25 48.9969 167.97 48.8569 168.85H39.3169C39.5769 169.95 40.1169 170.79 40.9369 171.37C41.7769 171.95 42.8169 172.24 44.0569 172.24C45.6569 172.24 47.0069 171.84 48.1069 171.04V174.16ZM42.7069 162.46C41.8469 162.46 41.0969 162.78 40.4569 163.42C39.8369 164.04 39.4369 164.95 39.2569 166.15H45.6469V165.7C45.6069 164.72 45.3369 163.94 44.8369 163.36C44.3569 162.76 43.6469 162.46 42.7069 162.46ZM63.9858 174.16C62.9258 174.82 61.3958 175.15 59.3958 175.15C56.9758 175.15 55.0658 174.43 53.6658 172.99C52.2658 171.55 51.5658 169.69 51.5658 167.41C51.5658 164.99 52.2258 163.09 53.5458 161.71C54.8658 160.33 56.5158 159.64 58.4958 159.64C60.4758 159.64 62.0458 160.24 63.2058 161.44C64.3658 162.64 64.9458 164.39 64.9458 166.69C64.9458 167.25 64.8758 167.97 64.7358 168.85H55.1958C55.4558 169.95 55.9958 170.79 56.8158 171.37C57.6558 171.95 58.6958 172.24 59.9358 172.24C61.5358 172.24 62.8858 171.84 63.9858 171.04V174.16ZM58.5858 162.46C57.7258 162.46 56.9758 162.78 56.3358 163.42C55.7158 164.04 55.3158 164.95 55.1358 166.15H61.5258V165.7C61.4858 164.72 61.2158 163.94 60.7158 163.36C60.2358 162.76 59.5258 162.46 58.5858 162.46ZM82.241 175H75.641V154.78H82.241C85.261 154.78 87.731 155.71 89.651 157.57C91.571 159.43 92.531 161.78 92.531 164.62C92.531 167.72 91.601 170.23 89.741 172.15C87.881 174.05 85.381 175 82.241 175ZM82.121 157.96H79.511V171.85H82.181C84.301 171.85 85.911 171.2 87.011 169.9C88.111 168.58 88.661 166.82 88.661 164.62C88.661 162.68 88.071 161.09 86.891 159.85C85.731 158.59 84.141 157.96 82.121 157.96ZM107.345 174.16C106.285 174.82 104.755 175.15 102.755 175.15C100.335 175.15 98.4252 174.43 97.0252 172.99C95.6252 171.55 94.9252 169.69 94.9252 167.41C94.9252 164.99 95.5852 163.09 96.9052 161.71C98.2252 160.33 99.8752 159.64 101.855 159.64C103.835 159.64 105.405 160.24 106.565 161.44C107.725 162.64 108.305 164.39 108.305 166.69C108.305 167.25 108.235 167.97 108.095 168.85H98.5552C98.8152 169.95 99.3552 170.79 100.175 171.37C101.015 171.95 102.055 172.24 103.295 172.24C104.895 172.24 106.245 171.84 107.345 171.04V174.16ZM101.945 162.46C101.085 162.46 100.335 162.78 99.6952 163.42C99.0752 164.04 98.6752 164.95 98.4952 166.15H104.885V165.7C104.845 164.72 104.575 163.94 104.075 163.36C103.595 162.76 102.885 162.46 101.945 162.46ZM115.364 175H111.764V153.79H115.364V175ZM123.157 175H119.557V159.79H123.157V175ZM123.517 155.23C123.517 155.85 123.307 156.37 122.887 156.79C122.467 157.21 121.957 157.42 121.357 157.42C120.757 157.42 120.247 157.21 119.827 156.79C119.407 156.37 119.197 155.85 119.197 155.23C119.197 154.63 119.407 154.12 119.827 153.7C120.247 153.28 120.757 153.07 121.357 153.07C121.957 153.07 122.467 153.28 122.887 153.7C123.307 154.12 123.517 154.63 123.517 155.23ZM135.03 175H131.13L125.64 159.79H129.42L131.43 166.24C131.83 167.5 132.17 168.63 132.45 169.63C132.73 170.61 132.91 171.28 132.99 171.64L133.08 172.18C133.28 171.06 133.85 169.08 134.79 166.24L136.89 159.79H140.61L135.03 175ZM154.542 174.16C153.482 174.82 151.952 175.15 149.952 175.15C147.532 175.15 145.622 174.43 144.222 172.99C142.822 171.55 142.122 169.69 142.122 167.41C142.122 164.99 142.782 163.09 144.102 161.71C145.422 160.33 147.072 159.64 149.052 159.64C151.032 159.64 152.602 160.24 153.762 161.44C154.922 162.64 155.502 164.39 155.502 166.69C155.502 167.25 155.432 167.97 155.292 168.85H145.752C146.012 169.95 146.552 170.79 147.372 171.37C148.212 171.95 149.252 172.24 150.492 172.24C152.092 172.24 153.442 171.84 154.542 171.04V174.16ZM149.142 162.46C148.282 162.46 147.532 162.78 146.892 163.42C146.272 164.04 145.872 164.95 145.692 166.15H152.082V165.7C152.042 164.72 151.772 163.94 151.272 163.36C150.792 162.76 150.082 162.46 149.142 162.46ZM162.411 175H158.781L158.811 159.79H162.411V162.49C163.111 160.61 164.391 159.67 166.251 159.67C166.671 159.67 167.011 159.7 167.271 159.76V163.24C166.811 163.04 166.301 162.94 165.741 162.94C164.761 162.94 163.961 163.34 163.341 164.14C162.721 164.94 162.411 165.94 162.411 167.14V175ZM177.188 174.58C175.668 178.64 173.348 180.67 170.228 180.67C169.648 180.67 169.148 180.62 168.728 180.52V177.55C169.048 177.63 169.388 177.67 169.748 177.67C171.568 177.67 172.858 176.68 173.618 174.7L167.618 159.79H171.608L173.378 164.65C173.918 166.09 174.348 167.3 174.668 168.28C175.008 169.26 175.218 169.88 175.298 170.14L175.388 170.56C175.588 169.86 176.228 167.89 177.308 164.65L178.898 159.79H182.678L177.188 174.58Z" fill="#232323"/>
<g filter="url(#filter0_d_1_80)">
<rect x="46" y="19" width="100" height="100" rx="5" fill="white"/>
</g>
<mask id="mask0_1_80" style="mask-type:alpha" maskUnits="userSpaceOnUse" x="63" y="44" width="66" height="50">
<rect x="63.5" y="44" width="65" height="50" rx="10" fill="white"/>
</mask>
<g mask="url(#mask0_1_80)">
<path d="M79.0894 80.6871C78.5731 80.6871 78.1545 81.1057 78.1545 81.622C78.1545 82.1375 77.735 82.557 77.2195 82.557C76.704 82.557 76.2846 82.1375 76.2846 81.622C76.2846 81.1065 76.704 80.6871 77.2195 80.6871C77.7359 80.6871 78.1545 80.2684 78.1545 79.7521C78.1545 79.2358 77.7359 78.8171 77.2195 78.8171C75.6729 78.8171 74.4146 80.0755 74.4146 81.622C74.4146 83.1686 75.6729 84.4269 77.2195 84.4269C78.7662 84.4269 80.0244 83.1686 80.0244 81.622C80.0244 81.1057 79.6058 80.6871 79.0894 80.6871Z" fill="#9E3040"/>
<path d="M116.488 80.6871C115.971 80.6871 115.553 81.1057 115.553 81.622C115.553 82.1375 115.133 82.557 114.618 82.557C114.102 82.557 113.683 82.1375 113.683 81.622C113.683 81.1065 114.102 80.6871 114.618 80.6871C115.134 80.6871 115.553 80.2684 115.553 79.7521C115.553 79.2358 115.134 78.8171 114.618 78.8171C113.071 78.8171 111.813 80.0755 111.813 81.622C111.813 83.1686 113.071 84.4269 114.618 84.4269C116.165 84.4269 117.423 83.1686 117.423 81.622C117.423 81.1057 117.004 80.6871 116.488 80.6871Z" fill="#9E3040"/>
<path d="M125.837 68.5326C125.837 68.2718 125.73 68.0362 125.558 67.8666C125.159 66.7616 124.348 65.8338 123.253 65.2861C123.224 65.2715 123.194 65.2586 123.164 65.2471L120.074 64.0872L118.191 56.9353C118.189 56.925 118.186 56.9148 118.183 56.9046C117.585 54.9121 115.786 53.5732 113.705 53.5732H107.138V51.7033C107.138 50.6723 106.299 49.8334 105.268 49.8334H67.8699C66.8389 49.8334 66 50.6723 66 51.7033V77.8822C66 78.9132 66.8389 79.7521 67.8699 79.7521H70.9484C70.8578 80.0552 70.7885 80.3674 70.7426 80.687H66.935C66.4186 80.687 66 81.1057 66 81.622C66 82.1383 66.4186 82.5569 66.935 82.5569H70.7427C71.1979 85.7244 73.9283 88.1667 77.2195 88.1667C80.5107 88.1667 83.2412 85.7244 83.6963 82.5569H85.6341C85.6341 84.1035 86.8924 85.3618 88.439 85.3618H94.0488C95.5954 85.3618 96.8537 84.1035 96.8537 82.5569H108.141C108.596 85.7244 111.327 88.1667 114.618 88.1667C117.909 88.1667 120.64 85.7244 121.095 82.5569H124.902C125.419 82.5569 125.837 82.1383 125.837 81.622C125.837 81.1057 125.419 80.687 124.902 80.687H121.095C121.049 80.3674 120.979 80.0552 120.889 79.7521H123.967C124.999 79.7521 125.837 78.9132 125.837 77.8822V69.4675C125.837 69.2478 125.822 69.031 125.793 68.818C125.822 68.728 125.837 68.6321 125.837 68.5326ZM123.967 74.1423H123.033V73.2074H123.967V74.1423ZM123.254 67.5976H107.138V65.7277H119.123L122.458 66.9794C122.765 67.1391 123.032 67.35 123.254 67.5976ZM113.705 55.4431C114.949 55.4431 116.025 56.2401 116.388 57.4278L118.08 63.8578H107.138V55.4431H113.705ZM71.6099 77.8822H67.8699V73.2074H96.8541C97.3705 73.2074 97.7891 72.7887 97.7891 72.2724C97.7891 71.7561 97.3705 71.3374 96.8541 71.3374H67.8699V51.7033H105.268V77.8822H94.0488H88.439H82.8295C82.7523 77.8822 82.6776 77.8926 82.6057 77.9102C81.4239 76.2004 79.4508 75.0773 77.2195 75.0773C74.9882 75.0773 73.0152 76.2004 71.8333 77.9102C71.7616 77.8926 71.687 77.8822 71.6099 77.8822ZM77.2195 86.2968C74.6418 86.2968 72.5447 84.1997 72.5447 81.622C72.5447 79.0443 74.6418 76.9472 77.2195 76.9472C79.7972 76.9472 81.8943 79.0443 81.8943 81.622C81.8943 84.1997 79.7972 86.2968 77.2195 86.2968ZM83.6963 80.687C83.6504 80.3674 83.5811 80.0552 83.4905 79.7521H85.795C85.6912 80.0447 85.6341 80.3593 85.6341 80.687H83.6963ZM94.9837 82.5569C94.9837 83.0725 94.5643 83.4919 94.0488 83.4919H88.439C87.9235 83.4919 87.5041 83.0725 87.5041 82.5569V81.6242C87.5041 81.6234 87.5042 81.6227 87.5042 81.622C87.5042 81.6213 87.5041 81.6205 87.5041 81.6198V80.687C87.5041 80.1715 87.9235 79.7521 88.439 79.7521H94.0488C94.5643 79.7521 94.9837 80.1715 94.9837 80.687V82.5569ZM96.6928 79.7521H106.203H108.347C108.256 80.0552 108.187 80.3674 108.141 80.687H96.8537C96.8537 80.3593 96.7966 80.0447 96.6928 79.7521ZM114.618 86.2968C112.04 86.2968 109.943 84.1997 109.943 81.622C109.943 79.0443 112.04 76.9472 114.618 76.9472C117.196 76.9472 119.293 79.0443 119.293 81.622C119.293 84.1997 117.196 86.2968 114.618 86.2968ZM120.228 77.8822C120.151 77.8822 120.076 77.8926 120.004 77.9102C118.822 76.2004 116.849 75.0773 114.618 75.0773C112.387 75.0773 110.414 76.2004 109.232 77.9102C109.16 77.8926 109.085 77.8822 109.008 77.8822H107.138V69.4675H123.968V71.3374H123.033C122.002 71.3374 121.163 72.1763 121.163 73.2074V74.1423C121.163 75.1733 122.002 76.0122 123.033 76.0122H123.968V77.8822H120.228Z" fill="#9E3040"/>
<path d="M89.374 80.687C89.1274 80.687 88.8866 80.7874 88.7125 80.9605C88.5384 81.1346 88.439 81.3765 88.439 81.622C88.439 81.8684 88.5384 82.1093 88.7125 82.2835C88.8866 82.4575 89.1274 82.5569 89.374 82.5569C89.6206 82.5569 89.8613 82.4575 90.0355 82.2835C90.2096 82.1093 90.3089 81.8673 90.3089 81.622C90.3089 81.3764 90.2096 81.1346 90.0355 80.9605C89.8613 80.7874 89.6206 80.687 89.374 80.687Z" fill="#9E3040"/>
<path d="M100.594 73.2073H102.463C102.98 73.2073 103.398 72.7887 103.398 72.2724C103.398 71.756 102.98 71.3374 102.463 71.3374H100.594C100.078 71.3374 99.659 71.756 99.659 72.2724C99.659 72.7887 100.078 73.2073 100.594 73.2073Z" fill="#9E3040"/>
</g>
<defs>
<filter id="filter0_d_1_80" x="27" y="0" width="138" height="138" filterUnits="userSpaceOnUse" color-interpolation-filters="sRGB">
<feFlood flood-opacity="0" result="BackgroundImageFix"/>
<feColorMatrix in="SourceAlpha" type="matrix" values="0 0 0 0 0 0 0 0 0 0 0 0 0 0 0 0 0 0 127 0" result="hardAlpha"/>
<feOffset/>
<feGaussianBlur stdDeviation="9.5"/>
<feColorMatrix type="matrix" values="0 0 0 0 0 0 0 0 0 0 0 0 0 0 0 0 0 0 0.19 0"/>
<feBlend mode="normal" in2="BackgroundImageFix" result="effect1_dropShadow_1_80"/>
<feBlend mode="normal" in="SourceGraphic" in2="effect1_dropShadow_1_80" result="shape"/>
</filter>
</defs>
</svg>
