<svg width="19" height="18" viewBox="0 0 19 18" fill="none" xmlns="http://www.w3.org/2000/svg">
<path d="M15.1806 11.1505C14.8121 10.7668 14.3676 10.5616 13.8965 10.5616C13.4293 10.5616 12.981 10.763 12.5973 11.1467L11.3968 12.3434C11.298 12.2902 11.1992 12.2408 11.1043 12.1914C10.9675 12.123 10.8383 12.0584 10.7281 11.99C9.60364 11.2758 8.5817 10.3451 7.60155 9.14078C7.12667 8.54053 6.80755 8.03526 6.57581 7.5224C6.88733 7.23747 7.17606 6.94114 7.45719 6.65622C7.56356 6.54984 7.66993 6.43967 7.77631 6.3333C8.5741 5.53551 8.5741 4.50217 7.77631 3.70438L6.73917 2.66724C6.6214 2.54947 6.49983 2.4279 6.38586 2.30634C6.15792 2.0708 5.91858 1.82766 5.67165 1.59972C5.30314 1.23501 4.86245 1.04126 4.39897 1.04126C3.93549 1.04126 3.48721 1.23501 3.1073 1.59972C3.10351 1.60352 3.10351 1.60352 3.09971 1.60731L1.80804 2.91038C1.32176 3.39666 1.04443 3.9893 0.98365 4.67693C0.892473 5.78624 1.21919 6.81958 1.46993 7.4958C2.08537 9.15598 3.00473 10.6946 4.37618 12.3434C6.04015 14.3302 8.04224 15.8992 10.3292 17.0048C11.203 17.4189 12.3693 17.9089 13.6724 17.9925C13.7522 17.9963 13.8357 18.0001 13.9117 18.0001C14.7893 18.0001 15.5263 17.6848 16.1038 17.0579C16.1076 17.0504 16.1152 17.0466 16.119 17.039C16.3165 16.7996 16.5445 16.5831 16.7838 16.3513C16.9472 16.1956 17.1143 16.0322 17.2777 15.8613C17.6538 15.47 17.8513 15.0141 17.8513 14.5468C17.8513 14.0757 17.65 13.6236 17.2663 13.2437L15.1806 11.1505ZM16.5407 15.1508C16.5369 15.1508 16.5369 15.1546 16.5407 15.1508C16.3925 15.3104 16.2405 15.4548 16.0772 15.6143C15.8302 15.8499 15.5795 16.0968 15.344 16.3741C14.9603 16.7844 14.5082 16.9782 13.9155 16.9782C13.8585 16.9782 13.7978 16.9782 13.7408 16.9744C12.6125 16.9022 11.5639 16.4615 10.7775 16.0854C8.62729 15.0445 6.73917 13.5666 5.17017 11.6937C3.87471 10.1323 3.00853 8.6887 2.43488 7.13869C2.08157 6.19274 1.9524 5.45573 2.00939 4.7605C2.04738 4.31602 2.21833 3.94751 2.53365 3.63219L3.82912 2.33673C4.01527 2.16197 4.21282 2.067 4.40657 2.067C4.64591 2.067 4.83966 2.21136 4.96123 2.33293C4.96503 2.33673 4.96883 2.34053 4.97263 2.34433C5.20437 2.56087 5.42471 2.78501 5.65645 3.02435C5.77422 3.14592 5.89579 3.26749 6.01736 3.39286L7.05449 4.42999C7.45719 4.83269 7.45719 5.20499 7.05449 5.60769C6.94432 5.71786 6.83795 5.82803 6.72777 5.9344C6.40866 6.26112 6.10473 6.56504 5.77422 6.86137C5.76662 6.86896 5.75902 6.87276 5.75522 6.88036C5.42851 7.20708 5.48929 7.52619 5.55768 7.74274C5.56147 7.75414 5.56527 7.76553 5.56907 7.77693C5.8388 8.43036 6.21871 9.0458 6.79616 9.77902L6.79996 9.78282C7.84849 11.0745 8.954 12.0812 10.1735 12.8524C10.3293 12.9512 10.4888 13.031 10.6408 13.107C10.7775 13.1753 10.9067 13.2399 11.0169 13.3083C11.0321 13.3159 11.0473 13.3273 11.0625 13.3349C11.1916 13.3995 11.3132 13.4299 11.4386 13.4299C11.7539 13.4299 11.9514 13.2323 12.016 13.1677L13.3153 11.8685C13.4444 11.7393 13.6496 11.5836 13.8889 11.5836C14.1245 11.5836 14.3182 11.7317 14.436 11.8609C14.4398 11.8647 14.4398 11.8647 14.4436 11.8685L16.5369 13.9617C16.9282 14.3492 16.9282 14.7481 16.5407 15.1508Z" fill="#232323"/>
<path d="M10.6826 4.28181C11.6779 4.44897 12.5821 4.92005 13.3039 5.64186C14.0257 6.36368 14.493 7.26784 14.664 8.26319C14.7058 8.51393 14.9223 8.68868 15.1692 8.68868C15.1996 8.68868 15.2262 8.68488 15.2566 8.68108C15.5377 8.63549 15.7239 8.36956 15.6783 8.08843C15.4732 6.88414 14.9033 5.78623 14.0333 4.91625C13.1634 4.04627 12.0654 3.47642 10.8611 3.27127C10.58 3.22568 10.3179 3.41183 10.2685 3.68916C10.2191 3.96649 10.4015 4.23622 10.6826 4.28181Z" fill="#232323"/>
<path d="M18.9341 7.94018C18.596 5.95709 17.6614 4.15255 16.2254 2.71652C14.7893 1.28049 12.9848 0.345932 11.0017 0.00781895C10.7244 -0.0415684 10.4623 0.148383 10.4129 0.425712C10.3673 0.70684 10.5534 0.968972 10.8346 1.01836C12.6049 1.31848 14.2195 2.15807 15.5036 3.43834C16.7876 4.72241 17.6234 6.33699 17.9235 8.10734C17.9653 8.35808 18.1819 8.53283 18.4288 8.53283C18.4592 8.53283 18.4858 8.52903 18.5162 8.52523C18.7935 8.48344 18.9835 8.21751 18.9341 7.94018Z" fill="#232323"/>
</svg>
