<svg width="219" height="213" viewBox="0 0 219 213" fill="none" xmlns="http://www.w3.org/2000/svg">
<path d="M12.2603 208H10.8657L8.41699 199.874C8.30078 199.514 8.17074 199.06 8.02686 198.512C7.88298 197.964 7.80827 197.635 7.80273 197.524C7.68099 198.255 7.4873 199.055 7.22168 199.923L4.84766 208H3.45312L0.224121 195.864H1.71826L3.63574 203.36C3.90137 204.411 4.09505 205.363 4.2168 206.215C4.36621 205.203 4.58757 204.212 4.88086 203.244L7.05566 195.864H8.5498L10.8325 203.31C11.0981 204.168 11.3223 205.136 11.5049 206.215C11.61 205.43 11.8092 204.472 12.1025 203.343L14.0117 195.864H15.5059L12.2603 208ZM21.0425 208.166C19.6978 208.166 18.6353 207.757 17.855 206.938C17.0802 206.118 16.6929 204.981 16.6929 203.526C16.6929 202.059 17.0526 200.895 17.772 200.031C18.4969 199.168 19.4681 198.736 20.6855 198.736C21.8255 198.736 22.7275 199.113 23.3916 199.865C24.0557 200.612 24.3877 201.6 24.3877 202.829V203.7H18.1206C18.1483 204.768 18.4167 205.579 18.9258 206.132C19.4404 206.686 20.1626 206.962 21.0923 206.962C22.0718 206.962 23.0402 206.758 23.9976 206.348V207.577C23.5106 207.787 23.0485 207.936 22.6113 208.025C22.1797 208.119 21.6567 208.166 21.0425 208.166ZM20.6689 199.89C19.9385 199.89 19.3547 200.128 18.9175 200.604C18.4858 201.08 18.2313 201.738 18.1538 202.58H22.9102C22.9102 201.711 22.7165 201.047 22.3291 200.587C21.9417 200.123 21.3883 199.89 20.6689 199.89ZM37.3867 208V202.115C37.3867 201.373 37.2179 200.82 36.8804 200.455C36.5428 200.089 36.0143 199.907 35.2949 199.907C34.3376 199.907 33.6375 200.167 33.1948 200.687C32.7576 201.207 32.5391 202.059 32.5391 203.244V208H31.1611V195.084H32.5391V198.994C32.5391 199.464 32.5169 199.854 32.4727 200.164H32.5557C32.8268 199.727 33.2114 199.384 33.7095 199.135C34.2131 198.88 34.7858 198.753 35.4277 198.753C36.54 198.753 37.3729 199.019 37.9263 199.55C38.4852 200.076 38.7646 200.914 38.7646 202.065V208H37.3867ZM47.1982 208L46.9243 206.705H46.8579C46.4041 207.275 45.9504 207.662 45.4966 207.867C45.0483 208.066 44.4867 208.166 43.8115 208.166C42.9095 208.166 42.2012 207.934 41.6865 207.469C41.1774 207.004 40.9229 206.343 40.9229 205.485C40.9229 203.648 42.3921 202.685 45.3306 202.596L46.8745 202.546V201.982C46.8745 201.268 46.7196 200.742 46.4097 200.405C46.1053 200.062 45.6156 199.89 44.9404 199.89C44.1823 199.89 43.3245 200.123 42.3672 200.587L41.9438 199.533C42.3921 199.29 42.8818 199.099 43.4131 198.96C43.9499 198.822 44.4867 198.753 45.0234 198.753C46.1081 198.753 46.9105 198.994 47.4307 199.475C47.9564 199.957 48.2192 200.729 48.2192 201.791V208H47.1982ZM44.0854 207.029C44.9432 207.029 45.6156 206.794 46.1025 206.323C46.5951 205.853 46.8413 205.194 46.8413 204.348V203.526L45.4634 203.584C44.3677 203.623 43.5763 203.794 43.0894 204.099C42.6079 204.397 42.3672 204.865 42.3672 205.501C42.3672 206 42.5166 206.379 42.8154 206.639C43.1198 206.899 43.5431 207.029 44.0854 207.029ZM53.0586 208L49.6055 198.902H51.083L53.042 204.298C53.4847 205.56 53.7448 206.379 53.8223 206.755H53.8887C53.9495 206.462 54.1405 205.856 54.4614 204.937C54.7879 204.013 55.5156 202.001 56.6445 198.902H58.1221L54.6689 208H53.0586ZM63.4263 208.166C62.0815 208.166 61.019 207.757 60.2388 206.938C59.464 206.118 59.0767 204.981 59.0767 203.526C59.0767 202.059 59.4364 200.895 60.1558 200.031C60.8807 199.168 61.8519 198.736 63.0693 198.736C64.2093 198.736 65.1113 199.113 65.7754 199.865C66.4395 200.612 66.7715 201.6 66.7715 202.829V203.7H60.5044C60.5321 204.768 60.8005 205.579 61.3096 206.132C61.8242 206.686 62.5464 206.962 63.4761 206.962C64.4556 206.962 65.424 206.758 66.3813 206.348V207.577C65.8944 207.787 65.4323 207.936 64.9951 208.025C64.5635 208.119 64.0405 208.166 63.4263 208.166ZM63.0527 199.89C62.3223 199.89 61.7384 200.128 61.3013 200.604C60.8696 201.08 60.6151 201.738 60.5376 202.58H65.2939C65.2939 201.711 65.1003 201.047 64.7129 200.587C64.3255 200.123 63.7721 199.89 63.0527 199.89ZM79.7373 206.78H79.6626C79.0262 207.704 78.0744 208.166 76.8071 208.166C75.6174 208.166 74.6904 207.759 74.0264 206.946C73.3678 206.132 73.0386 204.976 73.0386 203.476C73.0386 201.976 73.3706 200.812 74.0347 199.981C74.6987 199.151 75.6229 198.736 76.8071 198.736C78.0412 198.736 78.9875 199.185 79.646 200.081H79.7539L79.6958 199.425L79.6626 198.786V195.084H81.0405V208H79.9199L79.7373 206.78ZM76.9814 207.012C77.9222 207.012 78.6029 206.758 79.0234 206.249C79.4495 205.734 79.6626 204.907 79.6626 203.767V203.476C79.6626 202.187 79.4468 201.268 79.0151 200.72C78.589 200.167 77.9056 199.89 76.9648 199.89C76.1569 199.89 75.5371 200.206 75.1055 200.836C74.6794 201.462 74.4663 202.347 74.4663 203.493C74.4663 204.655 74.6794 205.532 75.1055 206.124C75.5316 206.716 76.1569 207.012 76.9814 207.012ZM87.814 208.166C86.4692 208.166 85.4067 207.757 84.6265 206.938C83.8517 206.118 83.4644 204.981 83.4644 203.526C83.4644 202.059 83.8241 200.895 84.5435 200.031C85.2684 199.168 86.2396 198.736 87.457 198.736C88.597 198.736 89.499 199.113 90.1631 199.865C90.8271 200.612 91.1592 201.6 91.1592 202.829V203.7H84.8921C84.9198 204.768 85.1882 205.579 85.6973 206.132C86.2119 206.686 86.9341 206.962 87.8638 206.962C88.8433 206.962 89.8117 206.758 90.769 206.348V207.577C90.2821 207.787 89.82 207.936 89.3828 208.025C88.9512 208.119 88.4282 208.166 87.814 208.166ZM87.4404 199.89C86.71 199.89 86.1261 200.128 85.689 200.604C85.2573 201.08 85.0028 201.738 84.9253 202.58H89.6816C89.6816 201.711 89.488 201.047 89.1006 200.587C88.7132 200.123 88.1598 199.89 87.4404 199.89ZM99.709 206.78H99.6343C98.9979 207.704 98.0461 208.166 96.7788 208.166C95.589 208.166 94.6621 207.759 93.998 206.946C93.3395 206.132 93.0103 204.976 93.0103 203.476C93.0103 201.976 93.3423 200.812 94.0063 199.981C94.6704 199.151 95.5946 198.736 96.7788 198.736C98.0129 198.736 98.9591 199.185 99.6177 200.081H99.7256L99.6675 199.425L99.6343 198.786V195.084H101.012V208H99.8916L99.709 206.78ZM96.9531 207.012C97.8939 207.012 98.5745 206.758 98.9951 206.249C99.4212 205.734 99.6343 204.907 99.6343 203.767V203.476C99.6343 202.187 99.4185 201.268 98.9868 200.72C98.5607 200.167 97.8773 199.89 96.9365 199.89C96.1286 199.89 95.5088 200.206 95.0771 200.836C94.651 201.462 94.438 202.347 94.438 203.493C94.438 204.655 94.651 205.532 95.0771 206.124C95.5033 206.716 96.1286 207.012 96.9531 207.012ZM105.32 208H103.942V198.902H105.32V208ZM103.826 196.437C103.826 196.122 103.904 195.892 104.059 195.748C104.214 195.599 104.407 195.524 104.64 195.524C104.861 195.524 105.052 195.599 105.212 195.748C105.373 195.897 105.453 196.127 105.453 196.437C105.453 196.747 105.373 196.979 105.212 197.134C105.052 197.284 104.861 197.358 104.64 197.358C104.407 197.358 104.214 197.284 104.059 197.134C103.904 196.979 103.826 196.747 103.826 196.437ZM111.878 208.166C110.561 208.166 109.54 207.762 108.815 206.954C108.096 206.141 107.736 204.992 107.736 203.509C107.736 201.987 108.101 200.812 108.832 199.981C109.568 199.151 110.613 198.736 111.969 198.736C112.406 198.736 112.844 198.783 113.281 198.877C113.718 198.972 114.061 199.082 114.31 199.209L113.887 200.38C113.582 200.258 113.25 200.159 112.891 200.081C112.531 199.998 112.213 199.957 111.936 199.957C110.088 199.957 109.164 201.135 109.164 203.493C109.164 204.611 109.388 205.468 109.836 206.066C110.29 206.664 110.959 206.962 111.845 206.962C112.603 206.962 113.38 206.799 114.177 206.473V207.693C113.569 208.008 112.802 208.166 111.878 208.166ZM121.938 208L121.665 206.705H121.598C121.144 207.275 120.691 207.662 120.237 207.867C119.789 208.066 119.227 208.166 118.552 208.166C117.65 208.166 116.941 207.934 116.427 207.469C115.918 207.004 115.663 206.343 115.663 205.485C115.663 203.648 117.132 202.685 120.071 202.596L121.615 202.546V201.982C121.615 201.268 121.46 200.742 121.15 200.405C120.846 200.062 120.356 199.89 119.681 199.89C118.923 199.89 118.065 200.123 117.107 200.587L116.684 199.533C117.132 199.29 117.622 199.099 118.153 198.96C118.69 198.822 119.227 198.753 119.764 198.753C120.848 198.753 121.651 198.994 122.171 199.475C122.697 199.957 122.959 200.729 122.959 201.791V208H121.938ZM118.826 207.029C119.683 207.029 120.356 206.794 120.843 206.323C121.335 205.853 121.582 205.194 121.582 204.348V203.526L120.204 203.584C119.108 203.623 118.317 203.794 117.83 204.099C117.348 204.397 117.107 204.865 117.107 205.501C117.107 206 117.257 206.379 117.556 206.639C117.86 206.899 118.283 207.029 118.826 207.029ZM128.745 207.029C128.989 207.029 129.224 207.012 129.451 206.979C129.678 206.94 129.857 206.902 129.99 206.863V207.917C129.841 207.989 129.619 208.047 129.326 208.091C129.038 208.141 128.778 208.166 128.546 208.166C126.786 208.166 125.906 207.239 125.906 205.385V199.973H124.603V199.309L125.906 198.736L126.487 196.794H127.284V198.902H129.924V199.973H127.284V205.327C127.284 205.875 127.414 206.296 127.674 206.589C127.934 206.882 128.291 207.029 128.745 207.029ZM135.66 208.166C134.315 208.166 133.252 207.757 132.472 206.938C131.697 206.118 131.31 204.981 131.31 203.526C131.31 202.059 131.67 200.895 132.389 200.031C133.114 199.168 134.085 198.736 135.303 198.736C136.443 198.736 137.345 199.113 138.009 199.865C138.673 200.612 139.005 201.6 139.005 202.829V203.7H132.738C132.765 204.768 133.034 205.579 133.543 206.132C134.058 206.686 134.78 206.962 135.709 206.962C136.689 206.962 137.657 206.758 138.615 206.348V207.577C138.128 207.787 137.666 207.936 137.229 208.025C136.797 208.119 136.274 208.166 135.66 208.166ZM135.286 199.89C134.556 199.89 133.972 200.128 133.535 200.604C133.103 201.08 132.848 201.738 132.771 202.58H137.527C137.527 201.711 137.334 201.047 136.946 200.587C136.559 200.123 136.006 199.89 135.286 199.89ZM147.555 206.78H147.48C146.844 207.704 145.892 208.166 144.625 208.166C143.435 208.166 142.508 207.759 141.844 206.946C141.185 206.132 140.856 204.976 140.856 203.476C140.856 201.976 141.188 200.812 141.852 199.981C142.516 199.151 143.44 198.736 144.625 198.736C145.859 198.736 146.805 199.185 147.463 200.081H147.571L147.513 199.425L147.48 198.786V195.084H148.858V208H147.737L147.555 206.78ZM144.799 207.012C145.74 207.012 146.42 206.758 146.841 206.249C147.267 205.734 147.48 204.907 147.48 203.767V203.476C147.48 202.187 147.264 201.268 146.833 200.72C146.406 200.167 145.723 199.89 144.782 199.89C143.974 199.89 143.354 200.206 142.923 200.836C142.497 201.462 142.284 202.347 142.284 203.493C142.284 204.655 142.497 205.532 142.923 206.124C143.349 206.716 143.974 207.012 144.799 207.012ZM163.26 204.771C163.26 205.839 162.872 206.672 162.098 207.27C161.323 207.867 160.271 208.166 158.943 208.166C157.505 208.166 156.398 207.981 155.623 207.61V206.249C156.121 206.459 156.663 206.625 157.25 206.747C157.837 206.868 158.418 206.929 158.993 206.929C159.934 206.929 160.642 206.752 161.118 206.398C161.594 206.038 161.832 205.54 161.832 204.904C161.832 204.483 161.746 204.14 161.575 203.875C161.409 203.603 161.126 203.354 160.728 203.127C160.335 202.901 159.735 202.643 158.927 202.355C157.798 201.951 156.99 201.473 156.503 200.919C156.021 200.366 155.781 199.644 155.781 198.753C155.781 197.818 156.132 197.073 156.835 196.52C157.538 195.967 158.467 195.69 159.624 195.69C160.83 195.69 161.94 195.911 162.953 196.354L162.513 197.583C161.511 197.162 160.537 196.952 159.591 196.952C158.844 196.952 158.26 197.112 157.839 197.433C157.419 197.754 157.208 198.2 157.208 198.77C157.208 199.19 157.286 199.536 157.441 199.807C157.596 200.073 157.856 200.319 158.221 200.546C158.592 200.767 159.156 201.014 159.915 201.285C161.187 201.738 162.062 202.225 162.538 202.746C163.019 203.266 163.26 203.941 163.26 204.771ZM166.829 198.902V204.804C166.829 205.546 166.998 206.099 167.335 206.464C167.673 206.83 168.201 207.012 168.921 207.012C169.873 207.012 170.567 206.752 171.004 206.232C171.447 205.712 171.668 204.862 171.668 203.684V198.902H173.046V208H171.909L171.71 206.78H171.635C171.353 207.228 170.96 207.571 170.457 207.809C169.958 208.047 169.389 208.166 168.747 208.166C167.64 208.166 166.81 207.903 166.256 207.377C165.708 206.852 165.435 206.011 165.435 204.854V198.902H166.829ZM180.21 208.166C179.618 208.166 179.076 208.058 178.583 207.842C178.096 207.621 177.687 207.283 177.354 206.83H177.255C177.321 207.361 177.354 207.864 177.354 208.34V212.084H175.977V198.902H177.097L177.288 200.147H177.354C177.709 199.649 178.121 199.29 178.591 199.068C179.062 198.847 179.601 198.736 180.21 198.736C181.416 198.736 182.346 199.149 182.999 199.973C183.658 200.798 183.987 201.954 183.987 203.443C183.987 204.937 183.652 206.099 182.982 206.929C182.318 207.754 181.394 208.166 180.21 208.166ZM180.011 199.907C179.081 199.907 178.409 200.164 177.994 200.679C177.579 201.193 177.366 202.012 177.354 203.136V203.443C177.354 204.721 177.568 205.637 177.994 206.19C178.42 206.738 179.103 207.012 180.044 207.012C180.83 207.012 181.444 206.694 181.887 206.058C182.335 205.421 182.559 204.544 182.559 203.426C182.559 202.292 182.335 201.423 181.887 200.82C181.444 200.211 180.819 199.907 180.011 199.907ZM190.636 208.166C190.044 208.166 189.501 208.058 189.009 207.842C188.522 207.621 188.112 207.283 187.78 206.83H187.681C187.747 207.361 187.78 207.864 187.78 208.34V212.084H186.402V198.902H187.523L187.714 200.147H187.78C188.134 199.649 188.547 199.29 189.017 199.068C189.487 198.847 190.027 198.736 190.636 198.736C191.842 198.736 192.772 199.149 193.425 199.973C194.083 200.798 194.413 201.954 194.413 203.443C194.413 204.937 194.078 206.099 193.408 206.929C192.744 207.754 191.82 208.166 190.636 208.166ZM190.437 199.907C189.507 199.907 188.834 200.164 188.419 200.679C188.004 201.193 187.791 202.012 187.78 203.136V203.443C187.78 204.721 187.993 205.637 188.419 206.19C188.846 206.738 189.529 207.012 190.47 207.012C191.256 207.012 191.87 206.694 192.312 206.058C192.761 205.421 192.985 204.544 192.985 203.426C192.985 202.292 192.761 201.423 192.312 200.82C191.87 200.211 191.244 199.907 190.437 199.907ZM204.681 203.443C204.681 204.926 204.307 206.085 203.56 206.921C202.813 207.751 201.781 208.166 200.464 208.166C199.65 208.166 198.928 207.975 198.297 207.593C197.667 207.211 197.18 206.664 196.836 205.95C196.493 205.236 196.322 204.4 196.322 203.443C196.322 201.96 196.693 200.806 197.434 199.981C198.176 199.151 199.205 198.736 200.522 198.736C201.795 198.736 202.805 199.16 203.552 200.006C204.304 200.853 204.681 201.999 204.681 203.443ZM197.75 203.443C197.75 204.605 197.982 205.49 198.447 206.099C198.912 206.708 199.595 207.012 200.497 207.012C201.399 207.012 202.083 206.711 202.547 206.107C203.018 205.499 203.253 204.611 203.253 203.443C203.253 202.286 203.018 201.409 202.547 200.812C202.083 200.208 201.394 199.907 200.48 199.907C199.578 199.907 198.898 200.203 198.438 200.795C197.979 201.387 197.75 202.27 197.75 203.443ZM211.255 198.736C211.659 198.736 212.021 198.77 212.342 198.836L212.151 200.114C211.775 200.031 211.443 199.99 211.155 199.99C210.419 199.99 209.788 200.289 209.263 200.886C208.743 201.484 208.482 202.228 208.482 203.119V208H207.104V198.902H208.242L208.399 200.587H208.466C208.803 199.995 209.21 199.539 209.686 199.218C210.162 198.897 210.685 198.736 211.255 198.736ZM216.982 207.029C217.226 207.029 217.461 207.012 217.688 206.979C217.915 206.94 218.095 206.902 218.228 206.863V207.917C218.078 207.989 217.857 208.047 217.563 208.091C217.276 208.141 217.016 208.166 216.783 208.166C215.023 208.166 214.144 207.239 214.144 205.385V199.973H212.84V199.309L214.144 198.736L214.725 196.794H215.521V198.902H218.161V199.973H215.521V205.327C215.521 205.875 215.652 206.296 215.912 206.589C216.172 206.882 216.529 207.029 216.982 207.029Z" fill="#303030"/>
<path d="M32.8 175H19.99V172.12C22.33 170.46 24.35 168.69 26.05 166.81C27.75 164.91 28.6 163.2 28.6 161.68C28.6 160.68 28.31 159.9 27.73 159.34C27.15 158.78 26.31 158.5 25.21 158.5C23.55 158.5 21.96 159.12 20.44 160.36V156.85C21.1 156.35 21.92 155.94 22.9 155.62C23.88 155.3 24.86 155.14 25.84 155.14C27.76 155.14 29.32 155.67 30.52 156.73C31.74 157.77 32.35 159.24 32.35 161.14C32.35 164.7 29.89 168.29 24.97 171.91H32.8V175ZM38.5614 167.5H43.7214V157.63L38.5614 167.5ZM47.3214 175H43.7214V170.59H34.9914V167.5L41.5314 155.35H47.3214V167.5H49.9014V170.59H47.3214V175ZM54.1227 178.09H50.4027L61.2327 153.79H64.9827L54.1227 178.09ZM69.5549 175H65.7149L73.5449 158.47H64.3049V155.35H77.3549V158.47L69.5549 175ZM106.64 169.33C106.64 171.13 105.99 172.57 104.69 173.65C103.41 174.71 101.72 175.24 99.6201 175.24C97.3401 175.24 95.4501 174.81 93.9501 173.95V170.08C95.6701 171.32 97.5501 171.94 99.5901 171.94C100.51 171.94 101.25 171.72 101.81 171.28C102.37 170.82 102.65 170.21 102.65 169.45C102.65 169.09 102.58 168.77 102.44 168.49C102.3 168.21 102.01 167.93 101.57 167.65C101.15 167.37 100.82 167.17 100.58 167.05C100.36 166.93 99.8901 166.71 99.1701 166.39C98.9701 166.29 98.8201 166.22 98.7201 166.18C97.9801 165.84 97.3801 165.54 96.9201 165.28C96.4601 165 95.9601 164.63 95.4201 164.17C94.8801 163.71 94.4701 163.16 94.1901 162.52C93.9301 161.88 93.8001 161.15 93.8001 160.33C93.8001 158.61 94.4301 157.23 95.6901 156.19C96.9701 155.15 98.6601 154.63 100.76 154.63C102.66 154.63 104.3 154.96 105.68 155.62V159.28C104.18 158.38 102.58 157.93 100.88 157.93C99.9401 157.93 99.2001 158.14 98.6601 158.56C98.1401 158.98 97.8801 159.52 97.8801 160.18C97.8801 160.84 98.1601 161.39 98.7201 161.83C99.3001 162.25 100.16 162.72 101.3 163.24C102.1 163.6 102.75 163.92 103.25 164.2C103.75 164.46 104.29 164.83 104.87 165.31C105.47 165.79 105.91 166.37 106.19 167.05C106.49 167.71 106.64 168.47 106.64 169.33ZM122.857 175H119.227V172.51C118.427 174.27 116.867 175.15 114.547 175.15C113.007 175.15 111.807 174.71 110.947 173.83C110.087 172.95 109.657 171.7 109.657 170.08V159.79H113.257V169.24C113.257 170.2 113.487 170.93 113.947 171.43C114.427 171.93 115.077 172.18 115.897 172.18C116.937 172.18 117.747 171.83 118.327 171.13C118.927 170.43 119.227 169.37 119.227 167.95V159.79H122.857V175ZM130.37 180.73H126.77V159.79H130.37V162.13C131.45 160.43 133 159.58 135.02 159.58C137 159.58 138.57 160.29 139.73 161.71C140.91 163.13 141.5 165 141.5 167.32C141.5 169.6 140.91 171.49 139.73 172.99C138.57 174.47 136.99 175.21 134.99 175.21C132.95 175.21 131.41 174.38 130.37 172.72V180.73ZM131.51 163.81C130.75 164.59 130.37 165.75 130.37 167.29C130.37 168.83 130.74 170.02 131.48 170.86C132.22 171.7 133.11 172.12 134.15 172.12C135.23 172.12 136.11 171.71 136.79 170.89C137.47 170.05 137.81 168.88 137.81 167.38C137.81 165.88 137.47 164.72 136.79 163.9C136.11 163.06 135.25 162.64 134.21 162.64C133.17 162.64 132.27 163.03 131.51 163.81ZM148.183 180.73H144.583V159.79H148.183V162.13C149.263 160.43 150.813 159.58 152.833 159.58C154.813 159.58 156.383 160.29 157.543 161.71C158.723 163.13 159.313 165 159.313 167.32C159.313 169.6 158.723 171.49 157.543 172.99C156.383 174.47 154.803 175.21 152.803 175.21C150.763 175.21 149.223 174.38 148.183 172.72V180.73ZM149.323 163.81C148.563 164.59 148.183 165.75 148.183 167.29C148.183 168.83 148.553 170.02 149.293 170.86C150.033 171.7 150.923 172.12 151.963 172.12C153.043 172.12 153.923 171.71 154.603 170.89C155.283 170.05 155.623 168.88 155.623 167.38C155.623 165.88 155.283 164.72 154.603 163.9C153.923 163.06 153.063 162.64 152.023 162.64C150.983 162.64 150.083 163.03 149.323 163.81ZM176.255 167.35C176.255 169.65 175.605 171.54 174.305 173.02C173.025 174.5 171.225 175.24 168.905 175.24C166.605 175.24 164.805 174.52 163.505 173.08C162.225 171.64 161.585 169.8 161.585 167.56C161.585 165.24 162.255 163.33 163.595 161.83C164.935 160.31 166.705 159.55 168.905 159.55C171.245 159.55 173.055 160.29 174.335 161.77C175.615 163.23 176.255 165.09 176.255 167.35ZM165.365 167.44C165.365 168.84 165.675 170.01 166.295 170.95C166.915 171.89 167.795 172.36 168.935 172.36C170.115 172.36 171.005 171.9 171.605 170.98C172.205 170.06 172.505 168.89 172.505 167.47C172.505 166.01 172.215 164.82 171.635 163.9C171.055 162.96 170.145 162.49 168.905 162.49C167.765 162.49 166.885 162.96 166.265 163.9C165.665 164.84 165.365 166.02 165.365 167.44ZM182.958 175H179.328L179.358 159.79H182.958V162.49C183.658 160.61 184.938 159.67 186.798 159.67C187.218 159.67 187.558 159.7 187.818 159.76V163.24C187.358 163.04 186.848 162.94 186.288 162.94C185.308 162.94 184.508 163.34 183.888 164.14C183.268 164.94 182.958 165.94 182.958 167.14V175ZM198.334 174.64C197.634 174.98 196.734 175.15 195.634 175.15C192.354 175.15 190.714 173.49 190.714 170.17V162.49H188.434V159.79H190.714V156.13H194.314V159.79H198.094V162.49H194.314V170.23C194.314 170.87 194.484 171.36 194.824 171.7C195.164 172.02 195.634 172.18 196.234 172.18C196.994 172.18 197.694 171.97 198.334 171.55V174.64Z" fill="#232323"/>
<g filter="url(#filter0_d_1_93)">
<rect x="59" y="19" width="100" height="100" rx="5" fill="white"/>
</g>
<mask id="mask0_1_93" style="mask-type:alpha" maskUnits="userSpaceOnUse" x="70" y="39" width="78" height="60">
<rect x="70" y="39" width="78" height="60" rx="10" fill="white"/>
</mask>
<g mask="url(#mask0_1_93)">
<path d="M124.973 80.5772C126.928 82.4928 126.929 85.5934 124.973 87.5093L123.768 88.6901C123.442 89.0092 122.914 89.0093 122.589 88.6901C122.263 88.371 122.263 87.8538 122.589 87.5347L123.794 86.3539C125.097 85.0769 125.098 83.0098 123.794 81.7325L119.151 77.1832C117.85 75.9092 115.734 75.9092 114.434 77.1832L112.493 79.0848C110.918 80.628 108.369 80.6282 106.793 79.0848L98.195 70.6603C96.62 69.1172 96.6198 66.6194 98.195 65.0761L100.136 63.1745C101.436 61.9004 101.436 59.8272 100.136 58.5531L95.4926 54.0039C94.1892 52.7268 92.0793 52.7267 90.7758 54.0039L89.0806 55.6647C84.5184 60.1347 84.5179 67.3693 89.0806 71.8397L105.59 88.0147C108.868 91.2266 113.777 92.2343 118.097 90.582C118.526 90.4179 119.009 90.6256 119.177 91.0458C119.344 91.4662 119.132 91.9399 118.703 92.104C113.762 93.9941 108.153 92.8368 104.41 89.17L87.9013 72.9951C82.6996 67.8986 82.6996 59.6059 87.9013 54.5094L89.5965 52.8486C91.5516 50.933 94.7163 50.9327 96.6718 52.8486L101.315 57.3978C103.266 59.309 103.266 62.4187 101.315 64.3299L99.3741 66.2315C98.4509 67.1361 98.4508 68.6003 99.3741 69.505L107.973 77.9295C108.894 78.8321 110.393 78.8321 111.314 77.9295L113.255 76.028C115.205 74.1169 118.379 74.1168 120.33 76.028L124.973 80.5772ZM129.831 45H108.985C106.686 45 104.816 46.8324 104.816 49.0848V57.2544C104.816 59.5068 106.686 61.3392 108.985 61.3392H109.819V63.9943C109.819 64.4463 110.193 64.8113 110.653 64.8113C110.971 64.8113 110.548 65.0076 117.011 61.2235C117.406 60.9921 117.535 60.4905 117.299 60.1032C117.063 59.7158 116.551 59.5895 116.156 59.8209L111.487 62.5544V60.5223C111.487 60.0711 111.113 59.7053 110.653 59.7053H108.985C107.606 59.7053 106.484 58.6058 106.484 57.2544V49.0848C106.484 47.7334 107.606 46.6339 108.985 46.6339H129.831C131.21 46.6339 132.332 47.7334 132.332 49.0848V57.2544C132.332 58.6058 131.21 59.7053 129.831 59.7053H121.145C120.685 59.7053 120.311 60.0711 120.311 60.5223C120.311 60.9734 120.685 61.3392 121.145 61.3392H129.831C132.13 61.3392 134 59.5068 134 57.2544V49.0848C134 46.8324 132.13 45 129.831 45ZM111.382 53.9866C112.647 53.9866 113.675 52.9787 113.675 51.7399C113.675 50.5011 112.647 49.4933 111.382 49.4933H109.923C109.463 49.4933 109.089 49.8591 109.089 50.3102C109.089 50.7614 109.463 51.1272 109.923 51.1272H111.382C111.727 51.1272 112.008 51.402 112.008 51.7399C112.008 52.0778 111.727 52.3526 111.382 52.3526C110.118 52.3526 109.089 53.3605 109.089 54.5993V56.029C109.089 56.4801 109.463 56.8459 109.923 56.8459H112.841C113.302 56.8459 113.675 56.4801 113.675 56.029C113.675 55.5778 113.302 55.212 112.841 55.212H110.757V54.5993C110.757 54.2614 111.037 53.9866 111.382 53.9866ZM118.678 56.8459C119.139 56.8459 119.512 56.4801 119.512 56.029C119.512 55.3349 119.512 51.007 119.512 50.3102C119.512 49.8591 119.139 49.4933 118.678 49.4933C118.218 49.4933 117.844 49.8591 117.844 50.3102V52.3526H116.594V50.3102C116.594 49.8591 116.22 49.4933 115.76 49.4933C115.299 49.4933 114.926 49.8591 114.926 50.3102V53.1696C114.926 53.6208 115.299 53.9866 115.76 53.9866H117.844V56.029C117.844 56.4801 118.218 56.8459 118.678 56.8459ZM126.863 56.8461C127.209 56.8461 127.532 56.6333 127.651 56.2946L129.658 50.5759C129.843 50.046 129.441 49.4933 128.869 49.4933H125.974C125.514 49.4933 125.141 49.8591 125.141 50.3102C125.141 50.7614 125.514 51.1272 125.974 51.1272H127.701L126.074 55.7634C125.887 56.296 126.294 56.8464 126.863 56.8461ZM122.382 56.2249L123.841 50.5062C123.953 50.0684 123.681 49.6249 123.234 49.5154C122.787 49.4062 122.335 49.6722 122.223 50.1099L120.764 55.8286C120.652 56.2664 120.924 56.7099 121.371 56.8194C121.818 56.9287 122.27 56.6622 122.382 56.2249Z" fill="#9E3040"/>
</g>
<defs>
<filter id="filter0_d_1_93" x="40" y="0" width="138" height="138" filterUnits="userSpaceOnUse" color-interpolation-filters="sRGB">
<feFlood flood-opacity="0" result="BackgroundImageFix"/>
<feColorMatrix in="SourceAlpha" type="matrix" values="0 0 0 0 0 0 0 0 0 0 0 0 0 0 0 0 0 0 127 0" result="hardAlpha"/>
<feOffset/>
<feGaussianBlur stdDeviation="9.5"/>
<feColorMatrix type="matrix" values="0 0 0 0 0 0 0 0 0 0 0 0 0 0 0 0 0 0 0.19 0"/>
<feBlend mode="normal" in2="BackgroundImageFix" result="effect1_dropShadow_1_93"/>
<feBlend mode="normal" in="SourceGraphic" in2="effect1_dropShadow_1_93" result="shape"/>
</filter>
</defs>
</svg>
