<svg width="138" height="138" viewBox="0 0 138 138" fill="none" xmlns="http://www.w3.org/2000/svg">
<g filter="url(#filter0_d_1_83)">
<rect x="19" y="19" width="100" height="100" rx="5" fill="white"/>
</g>
<mask id="mask0_1_83" style="mask-type:alpha" maskUnits="userSpaceOnUse" x="36" y="44" width="66" height="50">
<rect x="36.5" y="44" width="65" height="50" rx="10" fill="white"/>
</mask>
<g mask="url(#mask0_1_83)">
<path d="M52.0894 80.6871C51.5731 80.6871 51.1545 81.1057 51.1545 81.622C51.1545 82.1375 50.735 82.557 50.2195 82.557C49.704 82.557 49.2846 82.1375 49.2846 81.622C49.2846 81.1065 49.704 80.6871 50.2195 80.6871C50.7359 80.6871 51.1545 80.2684 51.1545 79.7521C51.1545 79.2358 50.7359 78.8171 50.2195 78.8171C48.6729 78.8171 47.4146 80.0755 47.4146 81.622C47.4146 83.1686 48.6729 84.4269 50.2195 84.4269C51.7662 84.4269 53.0244 83.1686 53.0244 81.622C53.0244 81.1057 52.6058 80.6871 52.0894 80.6871Z" fill="#9E3040"/>
<path d="M89.4878 80.6871C88.9715 80.6871 88.5529 81.1057 88.5529 81.622C88.5529 82.1375 88.1334 82.557 87.6179 82.557C87.1024 82.557 86.6829 82.1375 86.6829 81.622C86.6829 81.1065 87.1024 80.6871 87.6179 80.6871C88.1342 80.6871 88.5529 80.2684 88.5529 79.7521C88.5529 79.2358 88.1342 78.8171 87.6179 78.8171C86.0712 78.8171 84.813 80.0755 84.813 81.622C84.813 83.1686 86.0712 84.4269 87.6179 84.4269C89.1646 84.4269 90.4228 83.1686 90.4228 81.622C90.4228 81.1057 90.0041 80.6871 89.4878 80.6871Z" fill="#9E3040"/>
<path d="M98.8374 68.5326C98.8374 68.2718 98.7305 68.0362 98.5583 67.8666C98.1585 66.7616 97.3485 65.8338 96.2533 65.2861C96.2241 65.2715 96.1943 65.2586 96.1637 65.2471L93.0737 64.0872L91.1914 56.9353C91.1887 56.925 91.1859 56.9148 91.1828 56.9046C90.5851 54.9121 88.7857 53.5732 86.7052 53.5732H80.1382V51.7033C80.1382 50.6723 79.2993 49.8334 78.2683 49.8334H40.8699C39.8389 49.8334 39 50.6723 39 51.7033V77.8822C39 78.9132 39.8389 79.7521 40.8699 79.7521H43.9484C43.8578 80.0552 43.7885 80.3674 43.7426 80.687H39.935C39.4186 80.687 39 81.1057 39 81.622C39 82.1383 39.4186 82.5569 39.935 82.5569H43.7427C44.1979 85.7244 46.9283 88.1667 50.2195 88.1667C53.5107 88.1667 56.2412 85.7244 56.6963 82.5569H58.6341C58.6341 84.1035 59.8924 85.3618 61.439 85.3618H67.0488C68.5954 85.3618 69.8537 84.1035 69.8537 82.5569H81.1411C81.5963 85.7244 84.3267 88.1667 87.6179 88.1667C90.9091 88.1667 93.6396 85.7244 94.0947 82.5569H97.9024C98.4188 82.5569 98.8374 82.1383 98.8374 81.622C98.8374 81.1057 98.4188 80.687 97.9024 80.687H94.0947C94.0488 80.3674 93.9795 80.0552 93.8889 79.7521H96.9675C97.9985 79.7521 98.8374 78.9132 98.8374 77.8822V69.4675C98.8374 69.2478 98.8221 69.031 98.7926 68.818C98.8215 68.728 98.8374 68.6321 98.8374 68.5326ZM96.9675 74.1423H96.0325V73.2074H96.9675V74.1423ZM96.2545 67.5976H80.1382V65.7277H92.1231L95.4575 66.9794C95.7647 67.1391 96.0323 67.35 96.2545 67.5976ZM86.7052 55.4431C87.9485 55.4431 89.0247 56.2401 89.3875 57.4278L91.0798 63.8578H80.1382V55.4431H86.7052ZM44.6099 77.8822H40.8699V73.2074H69.8541C70.3705 73.2074 70.7891 72.7887 70.7891 72.2724C70.7891 71.7561 70.3705 71.3374 69.8541 71.3374H40.8699V51.7033H78.2683V77.8822H67.0488H61.439H55.8295C55.7523 77.8822 55.6776 77.8926 55.6057 77.9102C54.4239 76.2004 52.4508 75.0773 50.2195 75.0773C47.9882 75.0773 46.0152 76.2004 44.8333 77.9102C44.7616 77.8926 44.687 77.8822 44.6099 77.8822ZM50.2195 86.2968C47.6418 86.2968 45.5447 84.1997 45.5447 81.622C45.5447 79.0443 47.6418 76.9472 50.2195 76.9472C52.7972 76.9472 54.8943 79.0443 54.8943 81.622C54.8943 84.1997 52.7972 86.2968 50.2195 86.2968ZM56.6963 80.687C56.6504 80.3674 56.5811 80.0552 56.4905 79.7521H58.795C58.6912 80.0447 58.6341 80.3593 58.6341 80.687H56.6963ZM67.9837 82.5569C67.9837 83.0725 67.5643 83.4919 67.0488 83.4919H61.439C60.9235 83.4919 60.5041 83.0725 60.5041 82.5569V81.6242C60.5041 81.6234 60.5042 81.6227 60.5042 81.622C60.5042 81.6213 60.5041 81.6205 60.5041 81.6198V80.687C60.5041 80.1715 60.9235 79.7521 61.439 79.7521H67.0488C67.5643 79.7521 67.9837 80.1715 67.9837 80.687V82.5569ZM69.6928 79.7521H79.2033H81.3468C81.2562 80.0552 81.1869 80.3674 81.141 80.687H69.8537C69.8537 80.3593 69.7966 80.0447 69.6928 79.7521ZM87.6179 86.2968C85.0402 86.2968 82.9431 84.1997 82.9431 81.622C82.9431 79.0443 85.0402 76.9472 87.6179 76.9472C90.1956 76.9472 92.2927 79.0443 92.2927 81.622C92.2927 84.1997 90.1956 86.2968 87.6179 86.2968ZM93.2276 77.8822C93.1505 77.8822 93.0758 77.8926 93.0041 77.9102C91.8222 76.2004 89.8492 75.0773 87.6179 75.0773C85.3866 75.0773 83.4136 76.2004 82.2317 77.9102C82.1599 77.8926 82.0854 77.8822 82.0082 77.8822H80.1383V69.4675H96.9676V71.3374H96.0326C95.0016 71.3374 94.1627 72.1763 94.1627 73.2074V74.1423C94.1627 75.1733 95.0016 76.0122 96.0326 76.0122H96.9676V77.8822H93.2276Z" fill="#9E3040"/>
<path d="M62.374 80.687C62.1274 80.687 61.8866 80.7874 61.7125 80.9605C61.5384 81.1346 61.439 81.3765 61.439 81.622C61.439 81.8684 61.5384 82.1093 61.7125 82.2835C61.8866 82.4575 62.1274 82.5569 62.374 82.5569C62.6206 82.5569 62.8613 82.4575 63.0355 82.2835C63.2096 82.1093 63.3089 81.8673 63.3089 81.622C63.3089 81.3764 63.2096 81.1346 63.0355 80.9605C62.8613 80.7874 62.6206 80.687 62.374 80.687Z" fill="#9E3040"/>
<path d="M73.594 73.2073H75.4634C75.9797 73.2073 76.3984 72.7887 76.3984 72.2724C76.3984 71.756 75.9797 71.3374 75.4634 71.3374H73.594C73.0776 71.3374 72.659 71.756 72.659 72.2724C72.659 72.7887 73.0775 73.2073 73.594 73.2073Z" fill="#9E3040"/>
</g>
<defs>
<filter id="filter0_d_1_83" x="0" y="0" width="138" height="138" filterUnits="userSpaceOnUse" color-interpolation-filters="sRGB">
<feFlood flood-opacity="0" result="BackgroundImageFix"/>
<feColorMatrix in="SourceAlpha" type="matrix" values="0 0 0 0 0 0 0 0 0 0 0 0 0 0 0 0 0 0 127 0" result="hardAlpha"/>
<feOffset/>
<feGaussianBlur stdDeviation="9.5"/>
<feColorMatrix type="matrix" values="0 0 0 0 0 0 0 0 0 0 0 0 0 0 0 0 0 0 0.19 0"/>
<feBlend mode="normal" in2="BackgroundImageFix" result="effect1_dropShadow_1_83"/>
<feBlend mode="normal" in="SourceGraphic" in2="effect1_dropShadow_1_83" result="shape"/>
</filter>
</defs>
</svg>
