<svg width="24" height="18" viewBox="0 0 24 18" fill="none" xmlns="http://www.w3.org/2000/svg">
<path d="M20.7651 0H2.89233C1.2969 0 0 1.2969 0 2.89233V15.1077C0 16.7031 1.2969 18 2.89233 18H20.7602C22.3556 18 23.6525 16.7031 23.6525 15.1077V2.89723C23.6574 1.30179 22.3605 0 20.7651 0ZM22.3361 15.1077C22.3361 15.9739 21.6313 16.6786 20.7651 16.6786H2.89233C2.0261 16.6786 1.32137 15.9739 1.32137 15.1077V2.89723C1.32137 2.03099 2.0261 1.32626 2.89233 1.32626H20.7602C21.6264 1.32626 22.3312 2.03099 22.3312 2.89723V15.1077H22.3361Z" fill="#9E3040"/>
<path d="M14.9168 8.84833L20.7015 3.66072C20.9706 3.41603 20.9951 3.00004 20.7504 2.72598C20.5057 2.45681 20.0897 2.43234 19.8157 2.67704L11.8385 9.83691L10.2822 8.44702C10.2773 8.44213 10.2724 8.43723 10.2724 8.43234C10.2382 8.39808 10.2039 8.36872 10.1648 8.33935L3.83199 2.67214C3.55793 2.42745 3.14194 2.45191 2.89724 2.72598C2.65254 3.00004 2.67701 3.41603 2.95107 3.66072L8.80426 8.89237L2.97554 14.3491C2.71127 14.5987 2.69659 15.0147 2.94618 15.2839C3.07832 15.4209 3.2545 15.4943 3.43068 15.4943C3.59218 15.4943 3.75368 15.4356 3.88093 15.3181L9.79773 9.78307L11.403 11.217C11.5302 11.3296 11.6868 11.3834 11.8434 11.3834C12 11.3834 12.1615 11.3247 12.2839 11.2121L13.9331 9.73413L19.8157 15.323C19.9429 15.4454 20.1093 15.5041 20.2708 15.5041C20.447 15.5041 20.6183 15.4356 20.7504 15.2986C21 15.0343 20.9902 14.6134 20.726 14.3638L14.9168 8.84833Z" fill="#9E3040"/>
</svg>
