<svg width="118" height="105" viewBox="0 0 118 105" fill="none" xmlns="http://www.w3.org/2000/svg">
<g opacity="0.1">
<path d="M65.1092 83.9083C63.843 83.9083 62.8166 84.9349 62.8166 86.2009V93.5371C62.8166 99.8578 67.9589 105 74.2795 105H105.917C112.238 105 117.38 99.8578 117.38 93.5371V66.0289C117.38 59.7083 112.238 54.5661 105.917 54.5661H91.0859C91.6077 37.4391 98.106 28.5357 110.907 27.3711C112.088 27.2635 112.992 26.2736 112.992 25.0879V2.29257C112.992 1.66212 112.733 1.05963 112.275 0.626564C111.848 0.223297 111.284 0 110.7 0C110.657 0 110.614 0.00114441 110.571 0.00366211C94.7733 0.892265 82.7137 6.32912 74.7268 16.1633C66.8238 25.8944 62.8166 40.1134 62.8166 58.4259V66.6376C62.8166 67.9036 63.843 68.9302 65.1092 68.9302C66.3754 68.9302 67.4018 67.9036 67.4018 66.6376V58.4259C67.4018 24.8066 80.8214 7.22552 108.407 4.75732V23.0603C101.435 24.1447 96.042 27.3901 92.3572 32.7261C88.4485 38.3867 86.4666 46.5058 86.4666 56.8586C86.4666 58.1246 87.493 59.1512 88.7592 59.1512H105.917C109.709 59.1512 112.795 62.2366 112.795 66.0289V93.5371C112.795 97.3295 109.709 100.415 105.917 100.415H74.2795C70.4871 100.415 67.4018 97.3295 67.4018 93.5371V86.2009C67.4018 84.9349 66.3754 83.9083 65.1092 83.9083Z" fill="white"/>
<path d="M11.4629 105H43.1005C49.4211 105 54.5634 99.8578 54.5634 93.5371V66.029C54.5634 59.7083 49.4211 54.5661 43.1005 54.5661H28.2693C28.7911 37.4391 35.2894 28.5357 48.0907 27.3711C49.2714 27.2636 50.1756 26.2736 50.1756 25.0879V2.29258C50.1756 1.66212 49.9161 1.05963 49.458 0.626561C49.0311 0.223067 48.4674 -5.96046e-07 47.8832 -5.96046e-07C47.8404 -5.96046e-07 47.7973 0.00114368 47.7544 0.00366551C31.9567 0.892268 19.8971 6.32911 11.9102 16.1633C4.00723 25.8942 3.89516e-05 40.1134 3.89516e-05 58.4259V93.5371C3.89516e-05 99.8578 5.14229 105 11.4629 105ZM4.58519 58.4259C4.58519 24.8066 18.0048 7.22551 45.5904 4.75733V23.0603C38.6183 24.1447 33.2254 27.3901 29.5408 32.7261C25.6322 38.3864 23.6503 46.5056 23.6503 56.8586C23.6503 58.1246 24.6766 59.1512 25.9428 59.1512H43.1005C46.8929 59.1512 49.9782 62.2366 49.9782 66.029V93.5371C49.9782 97.3295 46.8929 100.415 43.1005 100.415H15.5896V83.442C15.5896 82.176 14.5632 81.1494 13.297 81.1494C12.0308 81.1494 11.0044 82.176 11.0044 83.442V100.398C7.42523 100.161 4.58519 97.1752 4.58519 93.5371V58.4259Z" fill="white"/>
<path d="M13.297 77.7759C14.5632 77.7759 15.5895 76.738 15.5895 75.4721C15.5895 74.2061 14.5632 73.1795 13.297 73.1795C12.031 73.1795 11.0044 74.2061 11.0044 75.4721V75.4948C11.0044 76.7607 12.0308 77.7759 13.297 77.7759Z" fill="white"/>
<path d="M65.1092 78.7119C66.3754 78.7119 67.4018 77.6853 67.4018 76.4193V76.3714C67.4018 75.1055 66.3754 74.0788 65.1092 74.0788C63.843 74.0788 62.8166 75.1055 62.8166 76.3714V76.4193C62.8166 77.6853 63.843 78.7119 65.1092 78.7119Z" fill="white"/>
</g>
</svg>
