<svg width="55" height="105" viewBox="0 0 55 105" fill="none" xmlns="http://www.w3.org/2000/svg">
<path d="M11.4629 105H43.1005C49.4211 105 54.5634 99.8578 54.5634 93.5371V66.0289C54.5634 59.7083 49.4211 54.5661 43.1005 54.5661H28.2693C28.7911 37.4391 35.2894 28.5357 48.0907 27.3711C49.2714 27.2635 50.1756 26.2736 50.1756 25.0879V2.29257C50.1756 1.66212 49.9161 1.05963 49.458 0.626564C49.0311 0.223068 48.4674 0 47.8832 0C47.8404 0 47.7973 0.00114441 47.7544 0.00366211C31.9567 0.892265 19.8971 6.32912 11.9102 16.1633C4.00723 25.8942 3.8147e-05 40.1134 3.8147e-05 58.4259V93.5371C3.8147e-05 99.8578 5.14229 105 11.4629 105ZM4.58519 58.4259C4.58519 24.8066 18.0048 7.22552 45.5904 4.75732V23.0603C38.6183 24.1447 33.2254 27.3901 29.5408 32.7261C25.6322 38.3864 23.6503 46.5056 23.6503 56.8586C23.6503 58.1246 24.6766 59.1512 25.9428 59.1512H43.1005C46.8929 59.1512 49.9782 62.2366 49.9782 66.0289V93.5371C49.9782 97.3295 46.8929 100.415 43.1005 100.415H15.5896V83.442C15.5896 82.176 14.5632 81.1494 13.297 81.1494C12.0308 81.1494 11.0044 82.176 11.0044 83.442V100.398C7.42524 100.161 4.58519 97.1752 4.58519 93.5371V58.4259Z" fill="white"/>
</svg>
