<svg width="25" height="22" viewBox="0 0 25 22" fill="none" xmlns="http://www.w3.org/2000/svg">
<path d="M12.3538 22C12.0021 22 11.663 21.8725 11.3987 21.6408C10.4006 20.7673 9.43824 19.9464 8.58922 19.2224L8.58488 19.2186C6.09568 17.0956 3.94616 15.2622 2.45056 13.4562C0.778713 11.4371 0 9.52279 0 7.4315C0 5.39963 0.696148 3.52511 1.96007 2.15299C3.23908 0.764638 4.99406 0 6.90229 0C8.32852 0 9.63467 0.451274 10.7844 1.34118C11.3646 1.79038 11.8905 2.34014 12.3538 2.98139C12.8174 2.34014 13.3431 1.79038 13.9235 1.34118C15.0732 0.451274 16.3794 0 17.8056 0C19.7136 0 21.4688 0.764638 22.7478 2.15299C24.0117 3.52511 24.7077 5.39963 24.7077 7.4315C24.7077 9.52279 23.9292 11.4371 22.2573 13.456C20.7617 15.2622 18.6124 17.0954 16.1236 19.2182C15.273 19.9434 14.3092 20.7656 13.3088 21.6412C13.0447 21.8725 12.7054 22 12.3538 22ZM6.90229 1.44853C5.40311 1.44853 4.0259 2.04734 3.02399 3.13477C2.0072 4.23862 1.44715 5.7645 1.44715 7.4315C1.44715 9.19038 2.10032 10.7634 3.56481 12.5319C4.9803 14.2414 7.0857 16.037 9.52345 18.1162L9.52797 18.12C10.3802 18.8469 11.3463 19.671 12.3518 20.5509C13.3633 19.6693 14.3309 18.8439 15.1848 18.1159C17.6224 16.0367 19.7276 14.2414 21.1431 12.5319C22.6074 10.7634 23.2605 9.19038 23.2605 7.4315C23.2605 5.7645 22.7005 4.23862 21.6837 3.13477C20.682 2.04734 19.3046 1.44853 17.8056 1.44853C16.7074 1.44853 15.6991 1.79793 14.8087 2.48691C14.0153 3.10119 13.4626 3.87771 13.1386 4.42105C12.972 4.70046 12.6786 4.86724 12.3538 4.86724C12.0291 4.86724 11.7357 4.70046 11.5691 4.42105C11.2452 3.87771 10.6926 3.10119 9.89895 2.48691C9.00864 1.79793 8.00033 1.44853 6.90229 1.44853Z" fill="#232323"/>
</svg>
